<?xml version="1.0" standalone="no"?>
<!DOCTYPE svg PUBLIC "-//W3C//DTD SVG 20010904//EN"
 "http://www.w3.org/TR/2001/REC-SVG-20010904/DTD/svg10.dtd">
<svg version="1.0" xmlns="http://www.w3.org/2000/svg"
 width="1375.000000pt" height="1375.000000pt" viewBox="0 0 1375.000000 1375.000000"
 preserveAspectRatio="xMidYMid meet">
<metadata>
Created by potrace 1.14, written by Peter Selinger 2001-2017
</metadata>
<g transform="translate(0.000000,1375.000000) scale(0.100000,-0.100000)"
fill="#000000" stroke="none">
<path d="M631 13736 c-9 -11 -11 -707 -8 -2947 3 -1614 7 -2956 10 -2984 4
-48 14 -155 23 -260 2 -27 6 -72 9 -100 6 -48 8 -69 20 -167 3 -24 10 -72 15
-108 5 -36 12 -81 15 -100 2 -19 12 -75 20 -125 9 -49 18 -103 21 -120 19
-113 133 -598 168 -713 49 -160 150 -469 157 -477 4 -5 8 -13 8 -17 3 -14 84
-233 106 -283 12 -29 38 -90 55 -130 89 -214 274 -586 390 -785 14 -25 29 -52
33 -60 10 -19 14 -27 111 -185 216 -352 551 -812 813 -1117 66 -76 201 -227
249 -278 29 -30 62 -66 74 -80 92 -107 483 -485 699 -675 312 -275 672 -557
1031 -806 171 -119 447 -302 505 -335 11 -6 67 -40 125 -76 125 -76 341 -203
425 -248 33 -18 74 -41 90 -50 203 -119 881 -444 1031 -496 50 -17 59 -14 245
66 326 141 651 305 1064 535 107 60 390 231 463 279 30 20 56 36 59 36 25 0
766 519 899 630 16 14 45 36 64 50 136 101 450 367 690 585 93 84 551 545 630
634 41 46 86 96 100 111 26 29 32 36 115 135 28 33 55 66 62 73 7 7 29 34 50
60 21 26 40 49 43 52 13 12 183 235 274 360 110 151 318 463 391 585 25 44 59
100 74 125 26 43 45 77 158 286 239 439 466 1002 611 1509 55 193 134 519 156
645 4 24 14 81 22 125 6 28 22 132 29 180 3 22 10 65 15 95 10 60 16 107 25
190 3 30 8 71 10 90 2 19 6 62 9 95 3 33 8 88 11 121 3 34 9 99 12 145 4 46 8
1398 10 3004 l4 2920 -6218 0 c-3420 1 -6227 4 -6239 8 -14 5 -25 2 -33 -7z"/>
</g>
</svg>
