<svg xmlns="http://www.w3.org/2000/svg" width="44.5" height="48.498" viewBox="0 0 44.5 48.498">
  <g id="Groupe_6295" data-name="Groupe 6295" transform="translate(-97.314 -411.268)">
    <path id="Tracé_6714" data-name="Tracé 6714" d="M106.993,436.3h3.352v10.513a.576.576,0,0,0,.576.577h2.944a.575.575,0,0,0,.576-.577V430.753a.575.575,0,0,0-.576-.576h-2.508a.576.576,0,0,0-.577.576,1.984,1.984,0,0,1-.1.478,2.215,2.215,0,0,1-.483.917,2.345,2.345,0,0,1-1.25.673,13.668,13.668,0,0,1-1.983.186.576.576,0,0,0-.551.576v2.144A.576.576,0,0,0,106.993,436.3Zm.576-2.174a11.261,11.261,0,0,0,1.631-.184,3.509,3.509,0,0,0,1.836-1,3.343,3.343,0,0,0,.752-1.389c.024-.078.044-.153.06-.222h1.441V446.24H111.5V435.726a.576.576,0,0,0-.577-.577h-3.352Z" transform="translate(2.237 4.648)" fill="#312d2d"/>
    <path id="Tracé_6715" data-name="Tracé 6715" d="M115.959,446.176a6.236,6.236,0,0,0,4.122,1.36,5.75,5.75,0,0,0,4.708-1.957,6.7,6.7,0,0,0,1.552-4.33,5.408,5.408,0,0,0-5.519-5.8,5.305,5.305,0,0,0-1.87.292,2.908,2.908,0,0,0-.269.117l.153-1.876h5.246a.576.576,0,0,0,.576-.577v-2.672a.576.576,0,0,0-.576-.577h-8.6a.578.578,0,0,0-.574.538l-.6,8.85a.564.564,0,0,0,.146.422.574.574,0,0,0,.4.193l3.146.131a.568.568,0,0,0,.534-.309,1.4,1.4,0,0,1,.787-.7,2.536,2.536,0,0,1,.807-.113,1.44,1.44,0,0,1,1.311.593,3.07,3.07,0,0,1,.473,1.749,2.831,2.831,0,0,1-.5,1.727,1.5,1.5,0,0,1-1.318.593,1.481,1.481,0,0,1-1.127-.38,2.5,2.5,0,0,1-.566-1.292.577.577,0,0,0-.567-.473h-3.138a.578.578,0,0,0-.422.184.568.568,0,0,0-.152.434A5.336,5.336,0,0,0,115.959,446.176Zm1.415-3.346a3.314,3.314,0,0,0,.756,1.406,2.587,2.587,0,0,0,1.962.737,2.639,2.639,0,0,0,2.242-1.056,3.955,3.955,0,0,0,.724-2.414,4.189,4.189,0,0,0-.671-2.4,2.558,2.558,0,0,0-2.262-1.1,3.654,3.654,0,0,0-1.187.178,2.51,2.51,0,0,0-1.232.934l-2.216-.093.527-7.724h7.491v1.522h-5.2a.575.575,0,0,0-.574.528l-.287,3.5a.574.574,0,0,0,.889.528,5.836,5.836,0,0,1,1.022-.572,4.287,4.287,0,0,1,1.465-.217,4.26,4.26,0,0,1,4.368,4.651,5.5,5.5,0,0,1-1.294,3.6,4.6,4.6,0,0,1-3.815,1.535,5.062,5.062,0,0,1-3.385-1.093,3.952,3.952,0,0,1-1.353-2.463Z" transform="translate(4.131 4.642)" fill="#312d2d"/>
    <path id="Tracé_6716" data-name="Tracé 6716" d="M136.916,418.762H135.5a.86.86,0,0,0-.345.074V414.11a2.843,2.843,0,0,0-5.686,0v4.669a.82.82,0,0,0-.157-.017h-19.5a.807.807,0,0,0-.214.031V414.11a2.843,2.843,0,0,0-5.686,0v4.705a.873.873,0,0,0-.288-.054h-1.413a4.9,4.9,0,0,0-4.9,4.9v31.206a4.9,4.9,0,0,0,4.9,4.9h34.7a4.9,4.9,0,0,0,4.9-4.9V423.663A4.906,4.906,0,0,0,136.916,418.762Zm-5.85-4.652a1.25,1.25,0,0,1,2.5,0v8.555a1.25,1.25,0,1,1-2.5,0Zm-25.56,0a1.25,1.25,0,1,1,2.5,0v8.555a1.25,1.25,0,1,1-2.5,0Zm34.581,40.759a3.174,3.174,0,0,1-3.171,3.169h-34.7a3.174,3.174,0,0,1-3.171-3.169V423.663a3.176,3.176,0,0,1,3.171-3.173h.549v1.692a3.957,3.957,0,1,0,7.915,0v-1.692h17.776v1.692a3.957,3.957,0,1,0,7.915,0v-1.692h.549a3.176,3.176,0,0,1,3.171,3.173Z" transform="translate(0 0)" fill="#312d2d"/>
    <path id="Tracé_6717" data-name="Tracé 6717" d="M136.878,427.268H101.005a.863.863,0,0,0-.863.863v21.2a2.975,2.975,0,0,0,2.972,2.97H134.77a2.975,2.975,0,0,0,2.971-2.97v-21.2A.863.863,0,0,0,136.878,427.268Zm-.865,22.064a1.244,1.244,0,0,1-1.243,1.243H103.114a1.247,1.247,0,0,1-1.246-1.243V428.995h34.145Z" transform="translate(0.695 3.933)" fill="#312d2d"/>
  </g>
</svg>
