<svg id="Groupe_6449" data-name="Groupe 6449" xmlns="http://www.w3.org/2000/svg" xmlns:xlink="http://www.w3.org/1999/xlink" width="156.197" height="136.401" viewBox="0 0 156.197 136.401">
  <defs>
    <clipPath id="clip-path">
      <rect id="Rectangle_132" data-name="Rectangle 132" width="156.197" height="136.401" fill="#c7c7cb"/>
    </clipPath>
  </defs>
  <g id="Groupe_6448" data-name="Groupe 6448" clip-path="url(#clip-path)">
    <path id="Tracé_7175" data-name="Tracé 7175" d="M78.281,8.016v-5.8s-10.241-6.57-16.618,2.9c0,0-11.594-5.8-16.232,5.99,0,0-12.366-4.638-14.879,9.468,0,0-13.913-2.125-13.913,12.174,0,0-13.912.193-8.5,13.527,0,0-10.628,3.865-4.638,15.458,0,0-12.174,6.956,8.889,23.961S46.4,112.554,58.958,125.307s20.289,11.014,20.289,11.014v-5.411s-7.923,1.546-17-6.763S26.495,91.105,19.152,85.888-.944,70.429,7.944,64.826c0,0-7.343-11.594,3.671-15.459,0,0-5.6-12.56,6.956-13.333,0,0-.193-13.333,13.527-11.014,0,0,2.512-14.106,14.492-9.855,0,0,4.058-11.014,14.879-6.183,0,0,7.923-9.469,16.811-.966" transform="translate(0 0)" fill="#c7c7cb"/>
    <path id="Tracé_7176" data-name="Tracé 7176" d="M115.7,11.542S126.714,92.119,127,117.336c0,0-11.594-91.592-14.782-105.214Z" transform="translate(-53.072 -5.458)" fill="#c7c7cb"/>
    <path id="Tracé_7177" data-name="Tracé 7177" d="M86.525,21.99s14.782,42.607,22.608,100c0,0-15.362-75.65-25.507-98.548Z" transform="translate(-39.549 -10.399)" fill="#c7c7cb"/>
    <path id="Tracé_7178" data-name="Tracé 7178" d="M59.29,41.237S80.738,85.584,92.622,130.51c0,0-24.927-67.824-35.941-87.823Z" transform="translate(-26.805 -19.502)" fill="#c7c7cb"/>
    <path id="Tracé_7179" data-name="Tracé 7179" d="M32.084,61.584s30.434,44.927,43.477,77.679c0,0-30.724-58.259-46.376-75.36Z" transform="translate(-13.803 -29.124)" fill="#c7c7cb"/>
    <path id="Tracé_7180" data-name="Tracé 7180" d="M16.368,87.429S43.9,116.414,61.294,148.007c0,0-28.985-42.9-46.955-57.68Z" transform="translate(-6.781 -41.347)" fill="#c7c7cb"/>
    <path id="Tracé_7181" data-name="Tracé 7181" d="M7.739,112.725s27.825,24.057,43.187,44.347c0,0-35.072-35.941-43.187-39.42Z" transform="translate(-3.66 -53.309)" fill="#c7c7cb"/>
    <path id="Tracé_7182" data-name="Tracé 7182" d="M66.117,196.677s2.512,3.671-1.353,13.719-4.638,14.106-1.546,16.811,9.855,2.319,19.323.193,12.947-2.7,17.777-.966l-4.831-3.092a106.831,106.831,0,0,0-16.038,3.092c-8.309,2.319-14.879.58-14.686-3.865s6.956-12.56,6.183-22.995Z" transform="translate(-28.995 -93.012)" fill="#c7c7cb"/>
    <path id="Tracé_7183" data-name="Tracé 7183" d="M73.035,219.407l14.686,7.923-15.458-5.99Z" transform="translate(-34.174 -103.761)" fill="#c7c7cb"/>
    <path id="Tracé_7184" data-name="Tracé 7184" d="M67,237l23.767,3.865L66.03,239.13Z" transform="translate(-31.226 -112.083)" fill="#c7c7cb"/>
    <path id="Tracé_7185" data-name="Tracé 7185" d="M117.721,22.2a14.627,14.627,0,0,1,12.493-2.758s-7.707-.366-12.564,4.357Z" transform="translate(-55.639 -9.015)" fill="#c7c7cb"/>
    <path id="Tracé_7186" data-name="Tracé 7186" d="M117.446,32.923a14.627,14.627,0,0,1,12.493-2.758s-7.707-.366-12.564,4.357Z" transform="translate(-55.508 -14.086)" fill="#c7c7cb"/>
    <path id="Tracé_7187" data-name="Tracé 7187" d="M133.2,138.95l.078.562a19.133,19.133,0,0,1,3.131-.188,15.9,15.9,0,0,0-3.209-.375" transform="translate(-62.992 -65.712)" fill="#c7c7cb"/>
    <path id="Tracé_7188" data-name="Tracé 7188" d="M132.053,130.7l.093.668a20.111,20.111,0,0,1,3.865-.3,15.74,15.74,0,0,0-3.958-.368" transform="translate(-62.45 -61.807)" fill="#c7c7cb"/>
    <path id="Tracé_7189" data-name="Tracé 7189" d="M130.821,121.746l.115.826a21,21,0,0,1,5.217-.572,15.447,15.447,0,0,0-5.332-.254" transform="translate(-61.867 -57.517)" fill="#c7c7cb"/>
    <path id="Tracé_7190" data-name="Tracé 7190" d="M129.651,113.153l.13.936a21.249,21.249,0,0,1,6.4-.887,15.277,15.277,0,0,0-6.528-.048" transform="translate(-61.314 -53.356)" fill="#c7c7cb"/>
    <path id="Tracé_7191" data-name="Tracé 7191" d="M128.475,104.535l.139,1a21.277,21.277,0,0,1,7.154-1.133,15.186,15.186,0,0,0-7.293.134" transform="translate(-60.758 -49.194)" fill="#c7c7cb"/>
    <path id="Tracé_7192" data-name="Tracé 7192" d="M127.335,96.19l.145,1.04a21.2,21.2,0,0,1,7.749-1.351,15.123,15.123,0,0,0-7.894.311" transform="translate(-60.219 -45.164)" fill="#c7c7cb"/>
    <path id="Tracé_7193" data-name="Tracé 7193" d="M126.094,87.065l.151,1.083a21.036,21.036,0,0,1,8.4-1.618,15.073,15.073,0,0,0-8.548.535" transform="translate(-59.632 -40.743)" fill="#c7c7cb"/>
    <path id="Tracé_7194" data-name="Tracé 7194" d="M124.9,78.4l.154,1.1a20.925,20.925,0,0,1,8.732-1.768,15.048,15.048,0,0,0-8.886.664" transform="translate(-59.069 -36.582)" fill="#c7c7cb"/>
    <path id="Tracé_7195" data-name="Tracé 7195" d="M123.674,69.319l.16,1.147a20.684,20.684,0,0,1,9.374-2.084,15.02,15.02,0,0,0-9.533.937" transform="translate(-58.487 -32.16)" fill="#c7c7cb"/>
    <path id="Tracé_7196" data-name="Tracé 7196" d="M122.455,60.281l.166,1.188a20.379,20.379,0,0,1,10.01-2.434,14.99,14.99,0,0,0-10.176,1.246" transform="translate(-57.911 -27.74)" fill="#c7c7cb"/>
    <path id="Tracé_7197" data-name="Tracé 7197" d="M121.171,50.862l.169,1.216a20.179,20.179,0,0,1,10.394-2.667,14.971,14.971,0,0,0-10.563,1.451" transform="translate(-57.304 -23.188)" fill="#c7c7cb"/>
    <path id="Tracé_7198" data-name="Tracé 7198" d="M119.946,41.8l.174,1.252c4.77-3.281,10.89-2.993,10.89-2.993A14.94,14.94,0,0,0,119.946,41.8" transform="translate(-56.724 -18.767)" fill="#c7c7cb"/>
    <path id="Tracé_7199" data-name="Tracé 7199" d="M88.851,29.1a14.628,14.628,0,0,1,12.032-4.35s-7.689.633-11.9,5.945Z" transform="translate(-42.019 -11.676)" fill="#c7c7cb"/>
    <path id="Tracé_7200" data-name="Tracé 7200" d="M118.864,143.955l.15.548a19.165,19.165,0,0,1,3.08-.591,15.885,15.885,0,0,0-3.23.043" transform="translate(-56.213 -68.029)" fill="#c7c7cb"/>
    <path id="Tracé_7201" data-name="Tracé 7201" d="M116.663,135.842l.179.65a20.12,20.12,0,0,1,3.793-.8,15.742,15.742,0,0,0-3.972.147" transform="translate(-55.172 -64.143)" fill="#c7c7cb"/>
    <path id="Tracé_7202" data-name="Tracé 7202" d="M114.3,126.959l.221.8a21.031,21.031,0,0,1,5.1-1.242,15.461,15.461,0,0,0-5.32.438" transform="translate(-54.052 -59.804)" fill="#c7c7cb"/>
    <path id="Tracé_7203" data-name="Tracé 7203" d="M112.049,118.45l.25.911a21.248,21.248,0,0,1,6.23-1.706,15.268,15.268,0,0,0-6.48.8" transform="translate(-52.99 -55.611)" fill="#c7c7cb"/>
    <path id="Tracé_7204" data-name="Tracé 7204" d="M109.79,109.969l.267.972A21.274,21.274,0,0,1,117,108.894a15.187,15.187,0,0,0-7.215,1.075" transform="translate(-51.921 -51.468)" fill="#c7c7cb"/>
    <path id="Tracé_7205" data-name="Tracé 7205" d="M107.6,101.771l.278,1.013a21.2,21.2,0,0,1,7.509-2.342,15.122,15.122,0,0,0-7.787,1.329" transform="translate(-50.887 -47.471)" fill="#c7c7cb"/>
    <path id="Tracé_7206" data-name="Tracé 7206" d="M105.217,92.807l.289,1.055a21.034,21.034,0,0,1,8.118-2.69,15.074,15.074,0,0,0-8.408,1.635" transform="translate(-49.759 -43.087)" fill="#c7c7cb"/>
    <path id="Tracé_7207" data-name="Tracé 7207" d="M103.481,84.142l.3,1.076a20.934,20.934,0,0,1,8.43-2.883,15.053,15.053,0,0,0-8.725,1.807" transform="translate(-48.938 -38.908)" fill="#c7c7cb"/>
    <path id="Tracé_7208" data-name="Tracé 7208" d="M100.938,75.043l.307,1.117a20.684,20.684,0,0,1,9.026-3.278,15.021,15.021,0,0,0-9.333,2.161" transform="translate(-47.735 -34.437)" fill="#c7c7cb"/>
    <path id="Tracé_7209" data-name="Tracé 7209" d="M98.963,66.346,99.28,67.5a20.385,20.385,0,0,1,9.612-3.708,14.992,14.992,0,0,0-9.93,2.551" transform="translate(-46.801 -30.14)" fill="#c7c7cb"/>
    <path id="Tracé_7210" data-name="Tracé 7210" d="M95.762,57.311l.325,1.184a20.176,20.176,0,0,1,9.962-3.988,14.969,14.969,0,0,0-10.287,2.8" transform="translate(-45.287 -25.747)" fill="#c7c7cb"/>
    <path id="Tracé_7211" data-name="Tracé 7211" d="M93.411,48.429l.335,1.219c4.306-3.869,10.411-4.375,10.411-4.375a14.939,14.939,0,0,0-10.746,3.156" transform="translate(-44.176 -21.381)" fill="#c7c7cb"/>
    <path id="Tracé_7212" data-name="Tracé 7212" d="M62.407,43.482a14.628,14.628,0,0,1,11.335-5.934s-7.534,1.665-10.984,7.5Z" transform="translate(-29.513 -17.757)" fill="#c7c7cb"/>
    <path id="Tracé_7213" data-name="Tracé 7213" d="M64.951,53.9a14.626,14.626,0,0,1,11.334-5.934s-7.533,1.665-10.984,7.5Z" transform="translate(-30.716 -22.685)" fill="#c7c7cb"/>
    <path id="Tracé_7214" data-name="Tracé 7214" d="M107.127,154.3l.223.522a19.226,19.226,0,0,1,2.972-1,15.912,15.912,0,0,0-3.195.479" transform="translate(-50.662 -72.743)" fill="#c7c7cb"/>
    <path id="Tracé_7215" data-name="Tracé 7215" d="M103.863,146.467l.265.62a20.11,20.11,0,0,1,3.651-1.3,15.737,15.737,0,0,0-3.916.681" transform="translate(-49.118 -68.944)" fill="#c7c7cb"/>
    <path id="Tracé_7216" data-name="Tracé 7216" d="M100.355,137.821l.327.767a21.014,21.014,0,0,1,4.885-1.919,15.445,15.445,0,0,0-5.212,1.152" transform="translate(-47.459 -64.633)" fill="#c7c7cb"/>
    <path id="Tracé_7217" data-name="Tracé 7217" d="M97.022,129.553l.371.869a21.253,21.253,0,0,1,5.943-2.532,15.271,15.271,0,0,0-6.313,1.663" transform="translate(-45.883 -60.481)" fill="#c7c7cb"/>
    <path id="Tracé_7218" data-name="Tracé 7218" d="M93.674,121.365l.4.928a21.27,21.27,0,0,1,6.608-2.967,15.19,15.19,0,0,0-7,2.039" transform="translate(-44.3 -56.431)" fill="#c7c7cb"/>
    <path id="Tracé_7219" data-name="Tracé 7219" d="M90.43,113.468l.412.966a21.2,21.2,0,0,1,7.125-3.334,15.122,15.122,0,0,0-7.537,2.368" transform="translate(-42.766 -52.541)" fill="#c7c7cb"/>
    <path id="Tracé_7220" data-name="Tracé 7220" d="M86.894,104.833l.429,1.006A21.038,21.038,0,0,1,95,102.078a15.071,15.071,0,0,0-8.11,2.755" transform="translate(-41.094 -48.274)" fill="#c7c7cb"/>
    <path id="Tracé_7221" data-name="Tracé 7221" d="M83.505,96.7l.438,1.026a20.932,20.932,0,0,1,7.964-3.994,15.048,15.048,0,0,0-8.4,2.968" transform="translate(-39.491 -44.327)" fill="#c7c7cb"/>
    <path id="Tracé_7222" data-name="Tracé 7222" d="M80.006,88.11l.455,1.066a20.68,20.68,0,0,1,8.5-4.467,15.022,15.022,0,0,0-8.955,3.4" transform="translate(-37.836 -40.06)" fill="#c7c7cb"/>
    <path id="Tracé_7223" data-name="Tracé 7223" d="M76.535,79.555l.471,1.1a20.382,20.382,0,0,1,9.024-4.971,14.989,14.989,0,0,0-9.494,3.868" transform="translate(-36.195 -35.794)" fill="#c7c7cb"/>
    <path id="Tracé_7224" data-name="Tracé 7224" d="M72.876,70.711l.482,1.13a20.182,20.182,0,0,1,9.333-5.3,14.971,14.971,0,0,0-9.815,4.167" transform="translate(-34.464 -31.47)" fill="#c7c7cb"/>
    <path id="Tracé_7225" data-name="Tracé 7225" d="M69.39,62.172l.5,1.163c3.744-4.415,9.726-5.74,9.726-5.74A14.939,14.939,0,0,0,69.39,62.172" transform="translate(-32.816 -27.237)" fill="#c7c7cb"/>
    <path id="Tracé_7226" data-name="Tracé 7226" d="M38.237,63.658A14.628,14.628,0,0,1,48.414,55.9s-7.147,2.906-9.569,9.235Z" transform="translate(-18.083 -26.438)" fill="#c7c7cb"/>
    <path id="Tracé_7227" data-name="Tracé 7227" d="M42.494,73.5A14.628,14.628,0,0,1,52.671,65.75s-7.147,2.906-9.569,9.235Z" transform="translate(-20.096 -31.094)" fill="#c7c7cb"/>
    <path id="Tracé_7228" data-name="Tracé 7228" d="M96.814,168.171l.307.478a19.16,19.16,0,0,1,2.761-1.486,15.9,15.9,0,0,0-3.069,1.009" transform="translate(-45.785 -79.054)" fill="#c7c7cb"/>
    <path id="Tracé_7229" data-name="Tracé 7229" d="M92.954,160.616l.365.567a20.1,20.1,0,0,1,3.381-1.9,15.732,15.732,0,0,0-3.746,1.329" transform="translate(-43.959 -75.329)" fill="#c7c7cb"/>
    <path id="Tracé_7230" data-name="Tracé 7230" d="M88.3,152.488l.451.7a21.012,21.012,0,0,1,4.493-2.712,15.45,15.45,0,0,0-4.945,2.011" transform="translate(-41.757 -71.163)" fill="#c7c7cb"/>
    <path id="Tracé_7231" data-name="Tracé 7231" d="M84.8,144.273l.511.794a21.249,21.249,0,0,1,5.433-3.494,15.27,15.27,0,0,0-5.944,2.7" transform="translate(-40.103 -66.952)" fill="#c7c7cb"/>
    <path id="Tracé_7232" data-name="Tracé 7232" d="M81.555,135.836l.546.848a21.27,21.27,0,0,1,6.016-4.034,15.188,15.188,0,0,0-6.562,3.187" transform="translate(-38.569 -62.732)" fill="#c7c7cb"/>
    <path id="Tracé_7233" data-name="Tracé 7233" d="M75.247,129.431l.569.883a21.192,21.192,0,0,1,6.463-4.483,15.125,15.125,0,0,0-7.032,3.6" transform="translate(-35.585 -59.507)" fill="#c7c7cb"/>
    <path id="Tracé_7234" data-name="Tracé 7234" d="M71.1,121.06l.591.92a21.038,21.038,0,0,1,6.94-5A15.069,15.069,0,0,0,71.1,121.06" transform="translate(-33.626 -55.323)" fill="#c7c7cb"/>
    <path id="Tracé_7235" data-name="Tracé 7235" d="M66.794,113.383l.6.938a20.926,20.926,0,0,1,7.18-5.275,15.047,15.047,0,0,0-7.784,4.337" transform="translate(-31.588 -51.57)" fill="#c7c7cb"/>
    <path id="Tracé_7236" data-name="Tracé 7236" d="M61.967,105.42l.627.974a20.686,20.686,0,0,1,7.63-5.831,15.023,15.023,0,0,0-8.257,4.857" transform="translate(-29.305 -47.558)" fill="#c7c7cb"/>
    <path id="Tracé_7237" data-name="Tracé 7237" d="M57.911,97.122l.649,1.008a20.38,20.38,0,0,1,8.06-6.416,14.992,14.992,0,0,0-8.71,5.408" transform="translate(-27.387 -43.373)" fill="#c7c7cb"/>
    <path id="Tracé_7238" data-name="Tracé 7238" d="M52.864,88.97,53.529,90a20.181,20.181,0,0,1,8.311-6.789,14.973,14.973,0,0,0-8.975,5.757" transform="translate(-25 -39.353)" fill="#c7c7cb"/>
    <path id="Tracé_7239" data-name="Tracé 7239" d="M48.055,81.076l.684,1.063c2.95-4.981,8.623-7.293,8.623-7.293a14.94,14.94,0,0,0-9.307,6.23" transform="translate(-22.726 -35.396)" fill="#c7c7cb"/>
    <path id="Tracé_7240" data-name="Tracé 7240" d="M17.921,83.209a14.629,14.629,0,0,1,9.025-9.069s-6.684,3.854-8.221,10.453Z" transform="translate(-8.475 -35.062)" fill="#c7c7cb"/>
    <path id="Tracé_7241" data-name="Tracé 7241" d="M23.48,92.383a14.627,14.627,0,0,1,9.025-9.069s-6.684,3.854-8.221,10.453Z" transform="translate(-11.104 -39.401)" fill="#c7c7cb"/>
    <path id="Tracé_7242" data-name="Tracé 7242" d="M89.372,179.633l.369.431a19.218,19.218,0,0,1,2.533-1.849,15.908,15.908,0,0,0-2.9,1.418" transform="translate(-42.265 -84.281)" fill="#c7c7cb"/>
    <path id="Tracé_7243" data-name="Tracé 7243" d="M84.557,172.592,85,173.1a20.1,20.1,0,0,1,3.091-2.339,15.752,15.752,0,0,0-3.53,1.827" transform="translate(-39.988 -80.757)" fill="#c7c7cb"/>
    <path id="Tracé_7244" data-name="Tracé 7244" d="M78.919,165.027l.542.633a21,21,0,0,1,4.081-3.3,15.442,15.442,0,0,0-4.624,2.666" transform="translate(-37.322 -76.783)" fill="#c7c7cb"/>
    <path id="Tracé_7245" data-name="Tracé 7245" d="M74.419,157.243l.615.717a21.253,21.253,0,0,1,4.906-4.2,15.259,15.259,0,0,0-5.521,3.485" transform="translate(-35.194 -72.715)" fill="#c7c7cb"/>
    <path id="Tracé_7246" data-name="Tracé 7246" d="M70.114,149.251l.656.765A21.282,21.282,0,0,1,76.18,145.2a15.191,15.191,0,0,0-6.066,4.052" transform="translate(-33.158 -68.667)" fill="#c7c7cb"/>
    <path id="Tracé_7247" data-name="Tracé 7247" d="M63.409,143.159l.684.8a21.2,21.2,0,0,1,5.792-5.322,15.128,15.128,0,0,0-6.476,4.525" transform="translate(-29.987 -65.562)" fill="#c7c7cb"/>
    <path id="Tracé_7248" data-name="Tracé 7248" d="M57.854,135.919l.712.831a21.039,21.039,0,0,1,6.193-5.9,15.075,15.075,0,0,0-6.905,5.066" transform="translate(-27.36 -61.882)" fill="#c7c7cb"/>
    <path id="Tracé_7249" data-name="Tracé 7249" d="M52.571,128.871l.726.847a20.922,20.922,0,0,1,6.394-6.2,15.046,15.046,0,0,0-7.12,5.357" transform="translate(-24.862 -58.412)" fill="#c7c7cb"/>
    <path id="Tracé_7250" data-name="Tracé 7250" d="M47.134,121.216l.754.88a20.683,20.683,0,0,1,6.764-6.817,15.023,15.023,0,0,0-7.518,5.937" transform="translate(-22.29 -54.517)" fill="#c7c7cb"/>
    <path id="Tracé_7251" data-name="Tracé 7251" d="M41.686,113.859l.781.911a20.374,20.374,0,0,1,7.111-7.455,14.986,14.986,0,0,0-7.892,6.544" transform="translate(-19.714 -50.751)" fill="#c7c7cb"/>
    <path id="Tracé_7252" data-name="Tracé 7252" d="M35.617,106.438l.8.932a20.181,20.181,0,0,1,7.307-7.858,14.973,14.973,0,0,0-8.107,6.926" transform="translate(-16.844 -47.061)" fill="#c7c7cb"/>
    <path id="Tracé_7253" data-name="Tracé 7253" d="M29.835,99.233l.823.959c2.243-5.337,7.548-8.4,7.548-8.4a14.94,14.94,0,0,0-8.371,7.44" transform="translate(-14.109 -43.41)" fill="#c7c7cb"/>
    <path id="Tracé_7254" data-name="Tracé 7254" d="M92.271,40.017c4.315-4.074,10.656-4.6,10.656-4.6a14.921,14.921,0,0,0-10.995,3.36Z" transform="translate(-43.476 -16.721)" fill="#c7c7cb"/>
    <path id="Tracé_7255" data-name="Tracé 7255" d="M8.289,114.433a14.627,14.627,0,0,1,7.739-10.188S9.916,108.953,9.27,115.7Z" transform="translate(-3.92 -49.299)" fill="#c7c7cb"/>
    <path id="Tracé_7256" data-name="Tracé 7256" d="M24.84,127.171a20.969,20.969,0,0,1,5.441-6.849,15.058,15.058,0,0,0-6.261,6.1l.82.748" transform="translate(-11.359 -56.902)" fill="#c7c7cb"/>
    <path id="Tracé_7257" data-name="Tracé 7257" d="M17.947,120.233a20.688,20.688,0,0,1,5.789-7.635,15.026,15.026,0,0,0-6.649,6.856l.86.779" transform="translate(-8.081 -53.249)" fill="#c7c7cb"/>
    <path id="Tracé_7258" data-name="Tracé 7258" d="M88.092,193.655c.082.107.166.215.242.316a17.534,17.534,0,0,1,1.57-1.433,16.193,16.193,0,0,0-1.812,1.117" transform="translate(-41.66 -91.054)" fill="#c7c7cb"/>
    <path id="Tracé_7259" data-name="Tracé 7259" d="M82.531,186.7a19.051,19.051,0,0,1,2.124-2.017,15.934,15.934,0,0,0-2.482,1.624c.123.134.239.263.358.393" transform="translate(-38.861 -87.34)" fill="#c7c7cb"/>
    <path id="Tracé_7260" data-name="Tracé 7260" d="M76.684,179.643a20.606,20.606,0,0,1,3.068-3.115,15.6,15.6,0,0,0-3.579,2.589l.511.526" transform="translate(-36.023 -83.483)" fill="#c7c7cb"/>
    <path id="Tracé_7261" data-name="Tracé 7261" d="M70.665,172.672a21.186,21.186,0,0,1,3.878-4.191,15.392,15.392,0,0,0-4.5,3.567l.627.625" transform="translate(-33.122 -79.677)" fill="#c7c7cb"/>
    <path id="Tracé_7262" data-name="Tracé 7262" d="M64.327,166.663a21.042,21.042,0,0,1,3.671-3.9,15.438,15.438,0,0,0-4.278,3.311l.607.591" transform="translate(-30.134 -76.972)" fill="#c7c7cb"/>
    <path id="Tracé_7263" data-name="Tracé 7263" d="M57.906,160.064a21.228,21.228,0,0,1,4.013-4.385,15.332,15.332,0,0,0-4.666,3.761l.653.625" transform="translate(-27.076 -73.623)" fill="#c7c7cb"/>
    <path id="Tracé_7264" data-name="Tracé 7264" d="M51.62,153.791a21.25,21.25,0,0,1,4.25-4.737,15.275,15.275,0,0,0-4.933,4.092l.683.646" transform="translate(-24.089 -70.49)" fill="#c7c7cb"/>
    <path id="Tracé_7265" data-name="Tracé 7265" d="M44.994,146.965a21.3,21.3,0,0,1,4.694-5.451,15.193,15.193,0,0,0-5.431,4.762l.737.689" transform="translate(-20.93 -66.924)" fill="#c7c7cb"/>
    <path id="Tracé_7266" data-name="Tracé 7266" d="M31.535,133.678a21.1,21.1,0,0,1,5.223-6.408,15.092,15.092,0,0,0-6.018,5.678l.8.731" transform="translate(-14.537 -60.188)" fill="#c7c7cb"/>
    <path id="Tracé_7267" data-name="Tracé 7267" d="M38.5,140.358a21.158,21.158,0,0,1,5.067-6.107,15.11,15.11,0,0,0-5.842,5.388l.775.718" transform="translate(-17.839 -63.489)" fill="#c7c7cb"/>
    <path id="Tracé_7268" data-name="Tracé 7268" d="M20.778,151.52a20.97,20.97,0,0,1,4.584-7.45,15.056,15.056,0,0,0-5.487,6.806l.9.645" transform="translate(-9.399 -68.133)" fill="#c7c7cb"/>
    <path id="Tracé_7269" data-name="Tracé 7269" d="M13.187,145.413a20.7,20.7,0,0,1,4.835-8.272,15.026,15.026,0,0,0-5.783,7.6l.947.67" transform="translate(-5.788 -64.856)" fill="#c7c7cb"/>
    <path id="Tracé_7270" data-name="Tracé 7270" d="M90.986,210.448c.094.1.19.193.278.285a17.49,17.49,0,0,1,1.388-1.611,16.2,16.2,0,0,0-1.666,1.326" transform="translate(-43.029 -98.897)" fill="#c7c7cb"/>
    <path id="Tracé_7271" data-name="Tracé 7271" d="M84.688,204.135a19.121,19.121,0,0,1,1.868-2.257,15.933,15.933,0,0,0-2.27,1.91l.4.347" transform="translate(-39.86 -95.471)" fill="#c7c7cb"/>
    <path id="Tracé_7272" data-name="Tracé 7272" d="M78.144,197.71a20.594,20.594,0,0,1,2.674-3.459,15.586,15.586,0,0,0-3.244,3l.57.461" transform="translate(-36.686 -91.864)" fill="#c7c7cb"/>
    <path id="Tracé_7273" data-name="Tracé 7273" d="M71.439,191.409a21.2,21.2,0,0,1,3.349-4.625,15.4,15.4,0,0,0-4.046,4.08l.7.545" transform="translate(-33.455 -88.333)" fill="#c7c7cb"/>
    <path id="Tracé_7274" data-name="Tracé 7274" d="M64.4,186.225a21.053,21.053,0,0,1,3.179-4.313,15.436,15.436,0,0,0-3.852,3.8l.674.514" transform="translate(-30.138 -86.029)" fill="#c7c7cb"/>
    <path id="Tracé_7275" data-name="Tracé 7275" d="M57.286,180.4a21.213,21.213,0,0,1,3.46-4.833,15.346,15.346,0,0,0-4.183,4.291l.723.542" transform="translate(-26.75 -83.028)" fill="#c7c7cb"/>
    <path id="Tracé_7276" data-name="Tracé 7276" d="M50.331,174.892a21.254,21.254,0,0,1,3.654-5.211,15.264,15.264,0,0,0-4.409,4.652l.755.559" transform="translate(-23.445 -80.245)" fill="#c7c7cb"/>
    <path id="Tracé_7277" data-name="Tracé 7277" d="M43.01,168.853a21.284,21.284,0,0,1,4.008-5.972,15.193,15.193,0,0,0-4.823,5.377l.814.6" transform="translate(-19.955 -77.029)" fill="#c7c7cb"/>
    <path id="Tracé_7278" data-name="Tracé 7278" d="M28.158,157.207a21.105,21.105,0,0,1,4.42-6.986,15.09,15.09,0,0,0-5.3,6.356l.877.63" transform="translate(-12.902 -71.042)" fill="#c7c7cb"/>
    <path id="Tracé_7279" data-name="Tracé 7279" d="M35.836,163.026a21.164,21.164,0,0,1,4.3-6.669,15.11,15.11,0,0,0-5.156,6.048l.855.62" transform="translate(-16.543 -73.944)" fill="#c7c7cb"/>
    <path id="Tracé_7280" data-name="Tracé 7280" d="M7.2,134.27l.521,1.042a21.3,21.3,0,0,1,3.869-5.659A15.294,15.294,0,0,0,7.2,134.27" transform="translate(-3.406 -61.314)" fill="#c7c7cb"/>
    <path id="Tracé_7281" data-name="Tracé 7281" d="M146.959,8.016v-5.8s10.241-6.57,16.618,2.9c0,0,11.594-5.8,16.232,5.99,0,0,12.366-4.638,14.879,9.468,0,0,13.913-2.125,13.913,12.174,0,0,13.912.193,8.5,13.527,0,0,10.628,3.865,4.638,15.458,0,0,12.174,6.956-8.889,23.961s-34.009,26.859-46.569,39.612-20.289,11.014-20.289,11.014v-5.411s7.923,1.546,17-6.763,35.748-33.042,43.091-38.259,20.1-15.459,11.207-21.062c0,0,7.343-11.594-3.671-15.459,0,0,5.6-12.56-6.956-13.333,0,0,.193-13.333-13.527-11.014,0,0-2.512-14.106-14.492-9.855,0,0-4.058-11.014-14.879-6.183,0,0-7.923-9.469-16.811-.966" transform="translate(-69.042 0)" fill="#c7c7cb"/>
    <path id="Tracé_7282" data-name="Tracé 7282" d="M167.379,11.542s-11.014,80.577-11.3,105.794c0,0,11.594-91.592,14.782-105.214Z" transform="translate(-73.81 -5.458)" fill="#c7c7cb"/>
    <path id="Tracé_7283" data-name="Tracé 7283" d="M186.931,21.99s-14.782,42.607-22.608,100c0,0,15.362-75.65,25.507-98.548Z" transform="translate(-77.711 -10.399)" fill="#c7c7cb"/>
    <path id="Tracé_7284" data-name="Tracé 7284" d="M204.8,41.237s-21.449,44.347-33.332,89.273c0,0,24.927-67.824,35.941-87.823Z" transform="translate(-81.092 -19.502)" fill="#c7c7cb"/>
    <path id="Tracé_7285" data-name="Tracé 7285" d="M222.648,61.584s-30.434,44.927-43.477,77.679c0,0,30.724-58.259,46.376-75.36Z" transform="translate(-84.733 -29.124)" fill="#c7c7cb"/>
    <path id="Tracé_7286" data-name="Tracé 7286" d="M237.845,87.429s-27.535,28.985-44.927,60.578c0,0,28.985-42.9,46.955-57.68Z" transform="translate(-91.234 -41.347)" fill="#c7c7cb"/>
    <path id="Tracé_7287" data-name="Tracé 7287" d="M249.853,112.725s-27.825,24.057-43.187,44.347c0,0,35.072-35.941,43.187-39.42Z" transform="translate(-97.736 -53.309)" fill="#c7c7cb"/>
    <path id="Tracé_7288" data-name="Tracé 7288" d="M195.226,196.677s-2.512,3.671,1.352,13.719,4.638,14.106,1.546,16.811-9.855,2.319-19.323.193-12.947-2.7-17.777-.966l4.831-3.092a106.831,106.831,0,0,1,16.038,3.092c8.309,2.319,14.879.58,14.686-3.865s-6.956-12.56-6.183-22.995Z" transform="translate(-76.151 -93.012)" fill="#c7c7cb"/>
    <path id="Tracé_7289" data-name="Tracé 7289" d="M209.437,219.407l-14.686,7.923,15.458-5.99Z" transform="translate(-92.101 -103.761)" fill="#c7c7cb"/>
    <path id="Tracé_7290" data-name="Tracé 7290" d="M207.154,237l-23.767,3.865,24.733-1.739Z" transform="translate(-86.727 -112.083)" fill="#c7c7cb"/>
    <path id="Tracé_7291" data-name="Tracé 7291" d="M167.348,22.2a14.627,14.627,0,0,0-12.493-2.758s7.706-.366,12.564,4.357Z" transform="translate(-73.233 -9.015)" fill="#c7c7cb"/>
    <path id="Tracé_7292" data-name="Tracé 7292" d="M167.623,32.923a14.627,14.627,0,0,0-12.493-2.758s7.706-.366,12.564,4.357Z" transform="translate(-73.363 -14.086)" fill="#c7c7cb"/>
    <path id="Tracé_7293" data-name="Tracé 7293" d="M160.263,138.95l-.078.562a19.133,19.133,0,0,0-3.131-.188,15.9,15.9,0,0,1,3.209-.375" transform="translate(-74.273 -65.712)" fill="#c7c7cb"/>
    <path id="Tracé_7294" data-name="Tracé 7294" d="M160.737,130.7l-.093.668a20.111,20.111,0,0,0-3.865-.3,15.739,15.739,0,0,1,3.958-.368" transform="translate(-74.143 -61.807)" fill="#c7c7cb"/>
    <path id="Tracé_7295" data-name="Tracé 7295" d="M160.736,121.746l-.115.826A21,21,0,0,0,155.4,122a15.447,15.447,0,0,1,5.332-.254" transform="translate(-73.493 -57.517)" fill="#c7c7cb"/>
    <path id="Tracé_7296" data-name="Tracé 7296" d="M160.833,113.153l-.13.936a21.249,21.249,0,0,0-6.4-.887,15.277,15.277,0,0,1,6.528-.048" transform="translate(-72.973 -53.356)" fill="#c7c7cb"/>
    <path id="Tracé_7297" data-name="Tracé 7297" d="M161.323,104.535l-.139,1a21.277,21.277,0,0,0-7.154-1.133,15.186,15.186,0,0,1,7.293.134" transform="translate(-72.843 -49.194)" fill="#c7c7cb"/>
    <path id="Tracé_7298" data-name="Tracé 7298" d="M161.924,96.19l-.145,1.04a21.2,21.2,0,0,0-7.749-1.351,15.123,15.123,0,0,1,7.894.311" transform="translate(-72.843 -45.164)" fill="#c7c7cb"/>
    <path id="Tracé_7299" data-name="Tracé 7299" d="M162.578,87.065l-.151,1.083a21.036,21.036,0,0,0-8.4-1.618,15.073,15.073,0,0,1,8.548.535" transform="translate(-72.843 -40.743)" fill="#c7c7cb"/>
    <path id="Tracé_7300" data-name="Tracé 7300" d="M163.466,78.4l-.154,1.1a20.925,20.925,0,0,0-8.732-1.768,15.048,15.048,0,0,1,8.886.664" transform="translate(-73.103 -36.582)" fill="#c7c7cb"/>
    <path id="Tracé_7301" data-name="Tracé 7301" d="M164.113,69.319l-.16,1.147a20.684,20.684,0,0,0-9.374-2.084,15.02,15.02,0,0,1,9.533.937" transform="translate(-73.103 -32.16)" fill="#c7c7cb"/>
    <path id="Tracé_7302" data-name="Tracé 7302" d="M164.756,60.281l-.165,1.188a20.379,20.379,0,0,0-10.01-2.434,14.99,14.99,0,0,1,10.176,1.246" transform="translate(-73.103 -27.74)" fill="#c7c7cb"/>
    <path id="Tracé_7303" data-name="Tracé 7303" d="M165.693,50.862l-.169,1.216a20.18,20.18,0,0,0-10.394-2.667,14.972,14.972,0,0,1,10.563,1.451" transform="translate(-73.363 -23.188)" fill="#c7c7cb"/>
    <path id="Tracé_7304" data-name="Tracé 7304" d="M166.468,41.8l-.174,1.252c-4.77-3.281-10.89-2.993-10.89-2.993A14.94,14.94,0,0,1,166.468,41.8" transform="translate(-73.493 -18.767)" fill="#c7c7cb"/>
    <path id="Tracé_7305" data-name="Tracé 7305" d="M196.7,29.1a14.628,14.628,0,0,0-12.032-4.35s7.689.633,11.9,5.945Z" transform="translate(-87.33 -11.676)" fill="#c7c7cb"/>
    <path id="Tracé_7306" data-name="Tracé 7306" d="M174.58,143.955l-.15.548a19.164,19.164,0,0,0-3.08-.591,15.885,15.885,0,0,1,3.23.043" transform="translate(-81.034 -68.029)" fill="#c7c7cb"/>
    <path id="Tracé_7307" data-name="Tracé 7307" d="M176.115,135.842l-.179.65a20.12,20.12,0,0,0-3.793-.8,15.742,15.742,0,0,1,3.972.147" transform="translate(-81.409 -64.143)" fill="#c7c7cb"/>
    <path id="Tracé_7308" data-name="Tracé 7308" d="M177.272,126.959l-.221.8a21.031,21.031,0,0,0-5.1-1.242,15.461,15.461,0,0,1,5.32.438" transform="translate(-81.319 -59.804)" fill="#c7c7cb"/>
    <path id="Tracé_7309" data-name="Tracé 7309" d="M178.479,118.45l-.25.911a21.248,21.248,0,0,0-6.23-1.706,15.268,15.268,0,0,1,6.48.8" transform="translate(-81.341 -55.611)" fill="#c7c7cb"/>
    <path id="Tracé_7310" data-name="Tracé 7310" d="M180.078,109.969l-.267.972a21.274,21.274,0,0,0-6.948-2.048,15.187,15.187,0,0,1,7.215,1.075" transform="translate(-81.75 -51.468)" fill="#c7c7cb"/>
    <path id="Tracé_7311" data-name="Tracé 7311" d="M181.753,101.771l-.278,1.013a21.2,21.2,0,0,0-7.509-2.342,15.126,15.126,0,0,1,7.788,1.329" transform="translate(-82.271 -47.471)" fill="#c7c7cb"/>
    <path id="Tracé_7312" data-name="Tracé 7312" d="M183.581,92.807l-.289,1.055a21.034,21.034,0,0,0-8.118-2.69,15.074,15.074,0,0,1,8.408,1.635" transform="translate(-82.842 -43.087)" fill="#c7c7cb"/>
    <path id="Tracé_7313" data-name="Tracé 7313" d="M185.031,84.142l-.3,1.076a20.934,20.934,0,0,0-8.43-2.883,15.053,15.053,0,0,1,8.725,1.807" transform="translate(-83.378 -38.908)" fill="#c7c7cb"/>
    <path id="Tracé_7314" data-name="Tracé 7314" d="M187.03,75.043l-.307,1.117a20.687,20.687,0,0,0-9.026-3.278,15.023,15.023,0,0,1,9.333,2.161" transform="translate(-84.036 -34.437)" fill="#c7c7cb"/>
    <path id="Tracé_7315" data-name="Tracé 7315" d="M188.469,66.346l-.317,1.156a20.385,20.385,0,0,0-9.612-3.708,14.992,14.992,0,0,1,9.93,2.551" transform="translate(-84.434 -30.14)" fill="#c7c7cb"/>
    <path id="Tracé_7316" data-name="Tracé 7316" d="M191.349,57.311l-.325,1.184a20.176,20.176,0,0,0-9.962-3.988,14.969,14.969,0,0,1,10.287,2.8" transform="translate(-85.627 -25.747)" fill="#c7c7cb"/>
    <path id="Tracé_7317" data-name="Tracé 7317" d="M193.288,48.429l-.335,1.219c-4.306-3.869-10.411-4.375-10.411-4.375a14.939,14.939,0,0,1,10.746,3.156" transform="translate(-86.327 -21.381)" fill="#c7c7cb"/>
    <path id="Tracé_7318" data-name="Tracé 7318" d="M223.764,43.482a14.628,14.628,0,0,0-11.335-5.934s7.533,1.665,10.984,7.5Z" transform="translate(-100.461 -17.757)" fill="#c7c7cb"/>
    <path id="Tracé_7319" data-name="Tracé 7319" d="M221.221,53.9a14.628,14.628,0,0,0-11.335-5.934s7.533,1.665,10.984,7.5Z" transform="translate(-99.258 -22.685)" fill="#c7c7cb"/>
    <path id="Tracé_7320" data-name="Tracé 7320" d="M186.349,154.3l-.223.522a19.226,19.226,0,0,0-2.972-1,15.912,15.912,0,0,1,3.195.479" transform="translate(-86.616 -72.743)" fill="#c7c7cb"/>
    <path id="Tracé_7321" data-name="Tracé 7321" d="M188.965,146.467l-.265.62a20.109,20.109,0,0,0-3.651-1.3,15.737,15.737,0,0,1,3.916.681" transform="translate(-87.513 -68.944)" fill="#c7c7cb"/>
    <path id="Tracé_7322" data-name="Tracé 7322" d="M191.31,137.821l-.327.767a21.014,21.014,0,0,0-4.885-1.919,15.445,15.445,0,0,1,5.212,1.152" transform="translate(-88.009 -64.633)" fill="#c7c7cb"/>
    <path id="Tracé_7323" data-name="Tracé 7323" d="M193.654,129.553l-.371.869a21.252,21.252,0,0,0-5.943-2.532,15.271,15.271,0,0,1,6.313,1.663" transform="translate(-88.597 -60.481)" fill="#c7c7cb"/>
    <path id="Tracé_7324" data-name="Tracé 7324" d="M196.384,121.365l-.4.928a21.269,21.269,0,0,0-6.608-2.967,15.19,15.19,0,0,1,7,2.039" transform="translate(-89.561 -56.431)" fill="#c7c7cb"/>
    <path id="Tracé_7325" data-name="Tracé 7325" d="M199.15,113.468l-.412.966a21.2,21.2,0,0,0-7.125-3.334,15.122,15.122,0,0,1,7.537,2.368" transform="translate(-90.617 -52.541)" fill="#c7c7cb"/>
    <path id="Tracé_7326" data-name="Tracé 7326" d="M202.172,104.833l-.429,1.006a21.038,21.038,0,0,0-7.681-3.761,15.071,15.071,0,0,1,8.11,2.755" transform="translate(-91.775 -48.274)" fill="#c7c7cb"/>
    <path id="Tracé_7327" data-name="Tracé 7327" d="M205.3,96.7l-.438,1.026a20.932,20.932,0,0,0-7.964-3.994,15.049,15.049,0,0,1,8.4,2.968" transform="translate(-93.116 -44.327)" fill="#c7c7cb"/>
    <path id="Tracé_7328" data-name="Tracé 7328" d="M208.3,88.11l-.455,1.066a20.68,20.68,0,0,0-8.5-4.467,15.022,15.022,0,0,1,8.955,3.4" transform="translate(-94.274 -40.06)" fill="#c7c7cb"/>
    <path id="Tracé_7329" data-name="Tracé 7329" d="M211.288,79.555l-.471,1.1a20.382,20.382,0,0,0-9.024-4.971,14.989,14.989,0,0,1,9.494,3.868" transform="translate(-95.432 -35.794)" fill="#c7c7cb"/>
    <path id="Tracé_7330" data-name="Tracé 7330" d="M214.66,70.711l-.482,1.13a20.182,20.182,0,0,0-9.333-5.3,14.971,14.971,0,0,1,9.814,4.167" transform="translate(-96.875 -31.47)" fill="#c7c7cb"/>
    <path id="Tracé_7331" data-name="Tracé 7331" d="M217.781,62.172l-.5,1.163c-3.744-4.415-9.726-5.74-9.726-5.74a14.939,14.939,0,0,1,10.222,4.578" transform="translate(-98.158 -27.237)" fill="#c7c7cb"/>
    <path id="Tracé_7332" data-name="Tracé 7332" d="M248.974,63.658A14.628,14.628,0,0,0,238.8,55.9s7.147,2.906,9.569,9.235Z" transform="translate(-112.931 -26.438)" fill="#c7c7cb"/>
    <path id="Tracé_7333" data-name="Tracé 7333" d="M244.716,73.5a14.628,14.628,0,0,0-10.177-7.754s7.147,2.906,9.569,9.235Z" transform="translate(-110.917 -31.094)" fill="#c7c7cb"/>
    <path id="Tracé_7334" data-name="Tracé 7334" d="M196.774,168.171l-.307.478a19.161,19.161,0,0,0-2.761-1.486,15.9,15.9,0,0,1,3.069,1.009" transform="translate(-91.606 -79.054)" fill="#c7c7cb"/>
    <path id="Tracé_7335" data-name="Tracé 7335" d="M200.026,160.616l-.365.567a20.12,20.12,0,0,0-3.381-1.9,15.732,15.732,0,0,1,3.746,1.329" transform="translate(-92.824 -75.329)" fill="#c7c7cb"/>
    <path id="Tracé_7336" data-name="Tracé 7336" d="M203.609,152.488l-.451.7a21.012,21.012,0,0,0-4.493-2.712,15.45,15.45,0,0,1,4.945,2.011" transform="translate(-93.951 -71.163)" fill="#c7c7cb"/>
    <path id="Tracé_7337" data-name="Tracé 7337" d="M206.208,144.273l-.511.794a21.249,21.249,0,0,0-5.433-3.494,15.27,15.27,0,0,1,5.944,2.7" transform="translate(-94.708 -66.952)" fill="#c7c7cb"/>
    <path id="Tracé_7338" data-name="Tracé 7338" d="M208.9,135.836l-.546.848a21.271,21.271,0,0,0-6.015-4.034,15.188,15.188,0,0,1,6.561,3.187" transform="translate(-95.689 -62.732)" fill="#c7c7cb"/>
    <path id="Tracé_7339" data-name="Tracé 7339" d="M214.786,129.431l-.569.883a21.192,21.192,0,0,0-6.463-4.483,15.125,15.125,0,0,1,7.032,3.6" transform="translate(-98.25 -59.507)" fill="#c7c7cb"/>
    <path id="Tracé_7340" data-name="Tracé 7340" d="M218.482,121.06l-.592.92a21.038,21.038,0,0,0-6.94-5,15.073,15.073,0,0,1,7.532,4.078" transform="translate(-99.762 -55.323)" fill="#c7c7cb"/>
    <path id="Tracé_7341" data-name="Tracé 7341" d="M222.564,113.383l-.6.938a20.926,20.926,0,0,0-7.18-5.275,15.047,15.047,0,0,1,7.784,4.337" transform="translate(-101.573 -51.57)" fill="#c7c7cb"/>
    <path id="Tracé_7342" data-name="Tracé 7342" d="M226.966,105.42l-.627.974a20.686,20.686,0,0,0-7.63-5.831,15.021,15.021,0,0,1,8.257,4.857" transform="translate(-103.431 -47.558)" fill="#c7c7cb"/>
    <path id="Tracé_7343" data-name="Tracé 7343" d="M230.616,97.122l-.649,1.008a20.38,20.38,0,0,0-8.06-6.416,14.992,14.992,0,0,1,8.71,5.408" transform="translate(-104.943 -43.373)" fill="#c7c7cb"/>
    <path id="Tracé_7344" data-name="Tracé 7344" d="M235.424,88.97,234.76,90a20.181,20.181,0,0,0-8.311-6.789,14.973,14.973,0,0,1,8.975,5.757" transform="translate(-107.091 -39.353)" fill="#c7c7cb"/>
    <path id="Tracé_7345" data-name="Tracé 7345" d="M239.935,81.076l-.684,1.063c-2.95-4.981-8.623-7.293-8.623-7.293a14.94,14.94,0,0,1,9.307,6.23" transform="translate(-109.068 -35.396)" fill="#c7c7cb"/>
    <path id="Tracé_7346" data-name="Tracé 7346" d="M270.323,83.209A14.627,14.627,0,0,0,261.3,74.14s6.684,3.854,8.221,10.453Z" transform="translate(-123.572 -35.062)" fill="#c7c7cb"/>
    <path id="Tracé_7347" data-name="Tracé 7347" d="M264.763,92.383a14.628,14.628,0,0,0-9.025-9.069s6.684,3.854,8.221,10.453Z" transform="translate(-120.943 -39.401)" fill="#c7c7cb"/>
    <path id="Tracé_7348" data-name="Tracé 7348" d="M204.366,179.633l-.369.431a19.218,19.218,0,0,0-2.533-1.849,15.909,15.909,0,0,1,2.9,1.418" transform="translate(-95.275 -84.281)" fill="#c7c7cb"/>
    <path id="Tracé_7349" data-name="Tracé 7349" d="M208.618,172.592l-.439.512a20.1,20.1,0,0,0-3.091-2.339,15.752,15.752,0,0,1,3.53,1.827" transform="translate(-96.989 -80.757)" fill="#c7c7cb"/>
    <path id="Tracé_7350" data-name="Tracé 7350" d="M213.274,165.027l-.542.633a21.015,21.015,0,0,0-4.082-3.3,15.452,15.452,0,0,1,4.624,2.666" transform="translate(-98.674 -76.783)" fill="#c7c7cb"/>
    <path id="Tracé_7351" data-name="Tracé 7351" d="M216.97,157.243l-.615.717a21.253,21.253,0,0,0-4.906-4.2,15.26,15.26,0,0,1,5.521,3.485" transform="translate(-99.998 -72.715)" fill="#c7c7cb"/>
    <path id="Tracé_7352" data-name="Tracé 7352" d="M220.786,149.251l-.656.765a21.282,21.282,0,0,0-5.409-4.817,15.191,15.191,0,0,1,6.066,4.052" transform="translate(-101.544 -68.667)" fill="#c7c7cb"/>
    <path id="Tracé_7353" data-name="Tracé 7353" d="M227.123,143.159l-.684.8a21.2,21.2,0,0,0-5.792-5.322,15.128,15.128,0,0,1,6.476,4.525" transform="translate(-104.347 -65.562)" fill="#c7c7cb"/>
    <path id="Tracé_7354" data-name="Tracé 7354" d="M232.292,135.919l-.712.831a21.039,21.039,0,0,0-6.193-5.9,15.075,15.075,0,0,1,6.905,5.066" transform="translate(-106.589 -61.882)" fill="#c7c7cb"/>
    <path id="Tracé_7355" data-name="Tracé 7355" d="M237.383,128.871l-.726.847a20.922,20.922,0,0,0-6.394-6.2,15.046,15.046,0,0,1,7.12,5.357" transform="translate(-108.895 -58.412)" fill="#c7c7cb"/>
    <path id="Tracé_7356" data-name="Tracé 7356" d="M242.463,121.216l-.754.88a20.683,20.683,0,0,0-6.764-6.817,15.023,15.023,0,0,1,7.518,5.937" transform="translate(-111.109 -54.517)" fill="#c7c7cb"/>
    <path id="Tracé_7357" data-name="Tracé 7357" d="M247.576,113.859l-.781.911a20.374,20.374,0,0,0-7.111-7.455,14.988,14.988,0,0,1,7.891,6.544" transform="translate(-113.35 -50.751)" fill="#c7c7cb"/>
    <path id="Tracé_7358" data-name="Tracé 7358" d="M253.451,106.438l-.8.932a20.181,20.181,0,0,0-7.307-7.858,14.973,14.973,0,0,1,8.107,6.926" transform="translate(-116.027 -47.061)" fill="#c7c7cb"/>
    <path id="Tracé_7359" data-name="Tracé 7359" d="M259,99.233l-.823.959c-2.243-5.337-7.548-8.4-7.548-8.4A14.943,14.943,0,0,1,259,99.233" transform="translate(-118.524 -43.41)" fill="#c7c7cb"/>
    <path id="Tracé_7360" data-name="Tracé 7360" d="M194.2,40.017c-4.315-4.074-10.656-4.6-10.656-4.6a14.922,14.922,0,0,1,10.995,3.36Z" transform="translate(-86.803 -16.721)" fill="#c7c7cb"/>
    <path id="Tracé_7361" data-name="Tracé 7361" d="M281.108,114.433a14.627,14.627,0,0,0-7.739-10.188s6.112,4.708,6.758,11.453Z" transform="translate(-129.281 -49.299)" fill="#c7c7cb"/>
    <path id="Tracé_7362" data-name="Tracé 7362" d="M265.884,127.171a20.969,20.969,0,0,0-5.441-6.849,15.058,15.058,0,0,1,6.261,6.1l-.82.748" transform="translate(-123.168 -56.902)" fill="#c7c7cb"/>
    <path id="Tracé_7363" data-name="Tracé 7363" d="M272.428,120.233a20.687,20.687,0,0,0-5.789-7.635,15.026,15.026,0,0,1,6.649,6.856l-.86.779" transform="translate(-126.098 -53.249)" fill="#c7c7cb"/>
    <path id="Tracé_7364" data-name="Tracé 7364" d="M206.624,193.655c-.082.107-.166.215-.242.316a17.534,17.534,0,0,0-1.57-1.433,16.194,16.194,0,0,1,1.812,1.117" transform="translate(-96.859 -91.054)" fill="#c7c7cb"/>
    <path id="Tracé_7365" data-name="Tracé 7365" d="M211.583,186.7a19.05,19.05,0,0,0-2.124-2.017,15.933,15.933,0,0,1,2.482,1.624c-.123.134-.239.263-.358.393" transform="translate(-99.056 -87.34)" fill="#c7c7cb"/>
    <path id="Tracé_7366" data-name="Tracé 7366" d="M216.445,179.643a20.606,20.606,0,0,0-3.068-3.115,15.6,15.6,0,0,1,3.579,2.589l-.511.526" transform="translate(-100.909 -83.483)" fill="#c7c7cb"/>
    <path id="Tracé_7367" data-name="Tracé 7367" d="M221.635,172.672a21.186,21.186,0,0,0-3.878-4.191,15.392,15.392,0,0,1,4.5,3.567l-.627.625" transform="translate(-102.981 -79.677)" fill="#c7c7cb"/>
    <path id="Tracé_7368" data-name="Tracé 7368" d="M228.176,166.663a21.042,21.042,0,0,0-3.671-3.9,15.438,15.438,0,0,1,4.278,3.311l-.607.591" transform="translate(-106.172 -76.972)" fill="#c7c7cb"/>
    <path id="Tracé_7369" data-name="Tracé 7369" d="M234.249,160.064a21.228,21.228,0,0,0-4.013-4.385,15.332,15.332,0,0,1,4.666,3.761l-.653.625" transform="translate(-108.882 -73.623)" fill="#c7c7cb"/>
    <path id="Tracé_7370" data-name="Tracé 7370" d="M240.3,153.791a21.265,21.265,0,0,0-4.25-4.737,15.273,15.273,0,0,1,4.932,4.092l-.683.646" transform="translate(-111.63 -70.49)" fill="#c7c7cb"/>
    <path id="Tracé_7371" data-name="Tracé 7371" d="M246.474,146.965a21.3,21.3,0,0,0-4.694-5.451,15.193,15.193,0,0,1,5.431,4.762l-.737.689" transform="translate(-114.342 -66.924)" fill="#c7c7cb"/>
    <path id="Tracé_7372" data-name="Tracé 7372" d="M259.407,133.678a21.1,21.1,0,0,0-5.223-6.408,15.092,15.092,0,0,1,6.018,5.678l-.8.731" transform="translate(-120.208 -60.188)" fill="#c7c7cb"/>
    <path id="Tracé_7373" data-name="Tracé 7373" d="M252.6,140.358a21.158,21.158,0,0,0-5.067-6.107,15.11,15.11,0,0,1,5.842,5.388l-.775.718" transform="translate(-117.064 -63.489)" fill="#c7c7cb"/>
    <path id="Tracé_7374" data-name="Tracé 7374" d="M270.64,151.52a20.97,20.97,0,0,0-4.584-7.45,15.056,15.056,0,0,1,5.487,6.806l-.9.645" transform="translate(-125.822 -68.133)" fill="#c7c7cb"/>
    <path id="Tracé_7375" data-name="Tracé 7375" d="M277.966,145.413a20.7,20.7,0,0,0-4.836-8.272,15.03,15.03,0,0,1,5.783,7.6l-.947.67" transform="translate(-129.167 -64.856)" fill="#c7c7cb"/>
    <path id="Tracé_7376" data-name="Tracé 7376" d="M203.861,210.448c-.094.1-.19.193-.278.285a17.49,17.49,0,0,0-1.388-1.611,16.2,16.2,0,0,1,1.666,1.326" transform="translate(-95.621 -98.897)" fill="#c7c7cb"/>
    <path id="Tracé_7377" data-name="Tracé 7377" d="M209.616,204.135a19.122,19.122,0,0,0-1.868-2.257,15.932,15.932,0,0,1,2.27,1.91l-.4.347" transform="translate(-98.247 -95.471)" fill="#c7c7cb"/>
    <path id="Tracé_7378" data-name="Tracé 7378" d="M215.287,197.71a20.594,20.594,0,0,0-2.674-3.459,15.6,15.6,0,0,1,3.244,3l-.57.461" transform="translate(-100.548 -91.864)" fill="#c7c7cb"/>
    <path id="Tracé_7379" data-name="Tracé 7379" d="M221.271,191.409a21.2,21.2,0,0,0-3.349-4.625,15.4,15.4,0,0,1,4.046,4.08l-.7.545" transform="translate(-103.059 -88.333)" fill="#c7c7cb"/>
    <path id="Tracé_7380" data-name="Tracé 7380" d="M228.484,186.225a21.053,21.053,0,0,0-3.179-4.313,15.436,15.436,0,0,1,3.852,3.8l-.674.514" transform="translate(-106.55 -86.029)" fill="#c7c7cb"/>
    <path id="Tracé_7381" data-name="Tracé 7381" d="M235.3,180.4a21.2,21.2,0,0,0-3.461-4.833,15.338,15.338,0,0,1,4.183,4.291l-.723.542" transform="translate(-109.641 -83.028)" fill="#c7c7cb"/>
    <path id="Tracé_7382" data-name="Tracé 7382" d="M242.054,174.892a21.254,21.254,0,0,0-3.654-5.211,15.264,15.264,0,0,1,4.409,4.652l-.755.559" transform="translate(-112.743 -80.245)" fill="#c7c7cb"/>
    <path id="Tracé_7383" data-name="Tracé 7383" d="M249,168.853A21.284,21.284,0,0,0,245,162.881a15.193,15.193,0,0,1,4.823,5.377l-.814.6" transform="translate(-115.862 -77.029)" fill="#c7c7cb"/>
    <path id="Tracé_7384" data-name="Tracé 7384" d="M263.431,157.207a21.105,21.105,0,0,0-4.42-6.986,15.09,15.09,0,0,1,5.3,6.356l-.877.63" transform="translate(-122.49 -71.042)" fill="#c7c7cb"/>
    <path id="Tracé_7385" data-name="Tracé 7385" d="M255.878,163.026a21.164,21.164,0,0,0-4.3-6.669,15.11,15.11,0,0,1,5.156,6.048l-.855.62" transform="translate(-118.975 -73.944)" fill="#c7c7cb"/>
    <path id="Tracé_7386" data-name="Tracé 7386" d="M285.2,134.27l-.521,1.042a21.3,21.3,0,0,0-3.869-5.659,15.294,15.294,0,0,1,4.39,4.618" transform="translate(-132.799 -61.314)" fill="#c7c7cb"/>
    <path id="Tracé_7387" data-name="Tracé 7387" d="M144.666,7.462l2.029,107.823L148.434,6.593Z" transform="translate(-68.415 -3.118)" fill="#c7c7cb"/>
  </g>
</svg>
