<svg xmlns="http://www.w3.org/2000/svg" width="41.564" height="50.504" viewBox="0 0 41.564 50.504">
  <g id="Groupe_6258" data-name="Groupe 6258" transform="translate(-165.968 -541.945)">
    <path id="Tracé_6638" data-name="Tracé 6638" d="M196.344,592.187h0a.946.946,0,0,0,.646-.257l10.091-9.514a.936.936,0,0,0,.287-.679,1.081,1.081,0,0,0,.161-.566V545.93a3.988,3.988,0,0,0-3.984-3.985h-33.6a3.989,3.989,0,0,0-3.984,3.985v42.534a3.989,3.989,0,0,0,3.984,3.985h25.686A1.1,1.1,0,0,0,196.344,592.187Zm.946-3.124v-3.657a2.738,2.738,0,0,1,2.735-2.735h4.043Zm-2.757,1.175H169.952a1.776,1.776,0,0,1-1.772-1.775V545.93a1.774,1.774,0,0,1,1.772-1.773h33.6a1.774,1.774,0,0,1,1.772,1.773v34.136h-5.162a5.632,5.632,0,0,0-5.626,5.625Z" transform="translate(0)" fill="#312d2d"/>
    <path id="Tracé_6639" data-name="Tracé 6639" d="M171.777,552.725h24.351a1.1,1.1,0,0,0,1.105-1.1V549.64a1.106,1.106,0,0,0-1.105-1.107H171.777a1.106,1.106,0,0,0-1.105,1.107v1.982A1.1,1.1,0,0,0,171.777,552.725ZM172,549.86h23.908V551.4H172Z" transform="translate(2.797 3.918)" fill="#312d2d"/>
    <path id="Tracé_6640" data-name="Tracé 6640" d="M171.777,557.072h24.351a1.106,1.106,0,0,0,1.105-1.107v-1.981a1.1,1.1,0,0,0-1.105-1.105H171.777a1.1,1.1,0,0,0-1.105,1.105v1.981A1.106,1.106,0,0,0,171.777,557.072Zm.222-2.866h23.908v1.539H172Z" transform="translate(2.797 6.503)" fill="#312d2d"/>
    <path id="Tracé_6641" data-name="Tracé 6641" d="M197.233,560.313v-1.981a1.1,1.1,0,0,0-1.105-1.105H171.777a1.1,1.1,0,0,0-1.105,1.105v1.981a1.1,1.1,0,0,0,1.105,1.105h24.351A1.1,1.1,0,0,0,197.233,560.313Zm-1.327-.222H172v-1.537h23.908Z" transform="translate(2.797 9.088)" fill="#312d2d"/>
  </g>
</svg>
