<svg xmlns="http://www.w3.org/2000/svg" width="65.5" height="64.265" viewBox="0 0 65.5 64.265">
  <g id="Groupe_6254" data-name="Groupe 6254" transform="translate(-349.368 -806.947)">
    <path id="Tracé_6683" data-name="Tracé 6683" d="M411.03,845.428H395.667v-6.039a4.956,4.956,0,0,0-.655-2.493,1.028,1.028,0,0,0,.579-.484,1.014,1.014,0,0,0-.048-1.038l-11.579-17.488v-2.794l7.156-2.948a1.011,1.011,0,0,0,0-1.869l-7.89-3.252a1.012,1.012,0,0,0-1.4.937v6.5a1,1,0,0,0,.109.448v3.067l-11.522,17.4a1.013,1.013,0,0,0-.048,1.038,1.028,1.028,0,0,0,.579.484,4.958,4.958,0,0,0-.656,2.493v6.039H353.206a3.843,3.843,0,0,0-3.838,3.839v18.106a3.841,3.841,0,0,0,3.838,3.839H411.03a3.842,3.842,0,0,0,3.838-3.839V849.267A3.844,3.844,0,0,0,411.03,845.428Zm-27.175-35.957,4.223,1.739-4.223,1.739Zm-.873,10.6,9.834,14.854H373.147Zm2.36,48.974h-5.65V857.807h5.65Zm27.5-1.668a1.817,1.817,0,0,1-1.815,1.815H387.365V856.8a1.013,1.013,0,0,0-1.011-1.012H378.68a1.013,1.013,0,0,0-1.011,1.012v12.392H353.206a1.817,1.817,0,0,1-1.815-1.815V849.267a1.817,1.817,0,0,1,1.815-1.815h18.113a1.009,1.009,0,0,0,1.008-1.083c0-.081-.009-.163-.009-.248v-6.733c0-1.326.83-2.445,1.814-2.445h17.7c.982,0,1.814,1.119,1.814,2.445v6.733c0,.082,0,.164-.011.245a1.012,1.012,0,0,0,1.01,1.086H411.03a1.817,1.817,0,0,1,1.815,1.815Z" transform="translate(0)" fill="#312d2d"/>
    <path id="Tracé_6684" data-name="Tracé 6684" d="M371.87,829.016h-5.057a.506.506,0,0,0-.506.506v5.057a.507.507,0,0,0,.506.506h5.057a.507.507,0,0,0,.506-.506v-5.057A.506.506,0,0,0,371.87,829.016Zm-.506,5.056h-4.046v-4.044h4.046Z" transform="translate(9.339 12.167)" fill="#312d2d"/>
    <path id="Tracé_6685" data-name="Tracé 6685" d="M377.1,829.016H372.04a.506.506,0,0,0-.506.506v5.057a.507.507,0,0,0,.506.506H377.1a.507.507,0,0,0,.506-.506v-5.057A.506.506,0,0,0,377.1,829.016Zm-.507,5.056h-4.044v-4.044h4.044Z" transform="translate(12.221 12.167)" fill="#312d2d"/>
    <path id="Tracé_6686" data-name="Tracé 6686" d="M359.641,838.227h-5.057a.506.506,0,0,0-.506.506v5.057a.507.507,0,0,0,.506.506h5.057a.507.507,0,0,0,.506-.506v-5.057A.506.506,0,0,0,359.641,838.227Zm-.506,5.056h-4.046v-4.044h4.046Z" transform="translate(2.597 17.246)" fill="#312d2d"/>
    <path id="Tracé_6687" data-name="Tracé 6687" d="M364.868,838.227h-5.057a.506.506,0,0,0-.506.506v5.057a.507.507,0,0,0,.506.506h5.057a.507.507,0,0,0,.506-.506v-5.057A.506.506,0,0,0,364.868,838.227Zm-.506,5.056h-4.046v-4.044h4.046Z" transform="translate(5.479 17.246)" fill="#312d2d"/>
    <path id="Tracé_6688" data-name="Tracé 6688" d="M383.887,838.227H378.83a.506.506,0,0,0-.506.506v5.057a.507.507,0,0,0,.506.506h5.057a.507.507,0,0,0,.506-.506v-5.057A.506.506,0,0,0,383.887,838.227Zm-.506,5.056h-4.046v-4.044h4.046Z" transform="translate(15.964 17.246)" fill="#312d2d"/>
    <path id="Tracé_6689" data-name="Tracé 6689" d="M389.114,838.227h-5.057a.506.506,0,0,0-.506.506v5.057a.507.507,0,0,0,.506.506h5.057a.507.507,0,0,0,.506-.506v-5.057A.506.506,0,0,0,389.114,838.227Zm-.507,5.056h-4.044v-4.044h4.044Z" transform="translate(18.846 17.246)" fill="#312d2d"/>
  </g>
</svg>
