<svg xmlns="http://www.w3.org/2000/svg" width="707.749" height="458.907" viewBox="0 0 707.749 458.907">
  <g id="Groupe_6459" data-name="Groupe 6459" opacity="0.093" style="mix-blend-mode: screen;isolation: isolate">
    <path id="Tracé_6792" data-name="Tracé 6792" d="M756.867,548.685l7.8-2.08.58,5.107c-.7.423-1.07.829-1.381.8-6.091-.533-6.914,2.857-6.946,6.408-.068,7.549.172,15.1.272,22.654.029,1.95,0,3.9,0,5.69-108.351.623-216.172,1.24-324.591,1.86-.805,14.227-1.936,27.632-2.229,41.048-.447,20.316-.379,40.642-.3,60.964a9.757,9.757,0,0,0,2.62,5.878c8.872,10.064,18.148,19.894,26.941,30,4.653,5.351,8.6,11.1,14.38,18.645,15.278-.811,33.1-1.747,50.915-2.7,4.864-.261,9.72-.843,14.58-.828q110.971.317,221.945.773c.884,0,1.768.078,3.2.145v13.61H57.563V740.714H81.391q91.334,0,182.668-.075c1.875,0,3.751-1,5.626-1.532-1.088-1.121-2.108-2.289-3.275-3.352-4.567-4.151-9.391-8.132-13.7-12.451-2.974-2.984-6.41-3.838-10.987-3.83q-87.667.139-175.335.055H57.5V707.214h18.27v-7q0-107.933.068-215.866c.011-7.874,2.126-15.826,1.285-23.6-2.133-19.752,4.159-38.846,5.7-58.29.372-4.708,2.5-9.311,3.078-14.024.211-1.706-1.328-3.856-2.791-5.336-3.214-3.25-2.706-7.958,1.628-9.5,8.7-3.1,17.432-6.156,26.247-9.039,18.942-6.194,38.017-12.127,56.9-18.451,8.306-2.781,16.369-3.81,25.041-1.269,18.452,5.406,37.216,10.171,55.4,16.11,10.149,3.317,19.59,8.2,28.87,12.99,1.872.965,2.133,4.673,2.051,7.095-.036,1-2.784,2.439-4.563,2.778a79.042,79.042,0,0,1-9.817.719V550.281c2.219-.843,3.883-1.147,4.985-1.956a104.668,104.668,0,0,0,10.429-8.3c3.9-3.728,8.815-5.081,14.537-5.585,9.888-.875,19.748-1.979,27.7-2.79,3.149-3.534,5.4-5.9,7.447-8.378,6.642-8.042,13.51-15.974,19.733-24.225,7.247-9.609,13.592-19.667,20.961-29.213,3.475-4.5,6.088-3.656,9.67.49,4.978,5.762,11.116,10.864,16.495,16.417,5.139,5.313,10.064,10.771,14.863,16.293,7.24,8.326,14.19,16.823,21.551,25.079.866.973,3.539,1.246,5.375,1.249,36.443.07,72.889-.014,109.331.119,4.96.02,5.991-1.831,6.095-5.209.383-12.585.995-25.163,1.378-37.745,1.331-43.507,2.706-87.014,3.758-130.524.122-5.038,1.943-8.45,7.079-11.232a101.1,101.1,0,0,0,14.594-9.328c5.683-4.5,12.157-6.086,19.905-5.956,13.542.226,27.091.061,41.739.061,0-2.958.319-5.765-.071-8.508-.669-4.725,1.364-7.489,6.957-9.514,10.514-3.807,20.363-8.9,31.053-12.28a36.26,36.26,0,0,1,17.736-.721,157.916,157.916,0,0,1,30.1,9.954c5.586,2.567,9.92,7.486,13.474,12.034,1.11,1.417-1.474,5.556-3.6,7.613-3.4,3.291-2.734,5.325,1.363,7.33a9.514,9.514,0,0,0,1.7.834c13.3,3.485,16.14,10.907,16.019,21.829-.694,61.877-.336,123.759-.336,185.642Zm-429.89-6.115c-16.437,1.445-32.592.307-43.421,12.385-3.969,4.43-11.169,7.622-13.166,12.4a73.74,73.74,0,0,0-5.547,26.145c-.648,24.065.115,48.154-.125,72.231-.107,10.884-2.48,21.829-1.575,32.62.737,8.784-1.1,19.381,12.662,24.309a10.167,10.167,0,0,1,5.4,5.267c1.4,3.5,4.252,3.645,7.744,3.558,8.636-.217,17.271-.472,25.907-.562,10.353-.107,12.218-1.576,12.211-10.151q-.038-85.723-.086-171.449ZM250.127,604.1V468.456c-10.783,0-20.947.067-31.11-.014-14.605-.113-29.21-.409-43.815-.466-5.951-.026-9.323,2.144-9.269,7.5.111,11.1-.075,22.217-.372,33.321-.415,15.389-1.235,30.772-1.521,46.161-.272,14.734-.107,29.477-.061,44.214a64.362,64.362,0,0,0,.709,6.6C193.489,605.208,221.725,604.655,250.127,604.1ZM89.4,650.482c14.977-6.521,29.017-11.913,42.1-18.544,11.445-5.8,22.2-12.781,18.839-26.056-.437-1.724-.09-3.583-.09-5.383q0-63.092,0-126.187v-6.579c-18.47,0-35.777.174-53.07-.1-5.855-.093-7.938.947-7.913,6.159.247,56.624.143,113.249.132,169.871ZM711.359,578.59c.92-3.563,1.424-6.567,2.494-9.435,1.75-4.682.157-7.923-5.955-8.569-8.052-.849-16.19-1.4-24.311-1.579-12-.269-12.007-.081-13.123,9.276-.637,5.351-2.9,6.721-9.115,5.032a21.869,21.869,0,0,1-7.39-3.337c-6.9-5.322-13.528-10.875-20.174-16.409-5.826-4.852-10.525-11.686-17.586-14.172s-16.459-.686-24.833-.762c-.888-.009-1.779,0-2.666,0q-69.308.013-138.613.038c-4.663,0-9.33.191-13.989.165-4.527-.029-6.138,1.637-6.059,5.3.2,9.314.383,18.645-.158,27.941-.319,5.53,2.226,7.2,8.743,7.162,32.431-.209,64.862-.122,97.293-.238,45.518-.162,91.037-.478,136.555-.536,5.2-.006,8.861.5,8.625-5.49-.136-3.482,2.419-7.547,8.3-7.576,6.181-.029,6.478,3.7,6.707,7.529.19,3.253,1.542,5.991,6.71,5.693C705.447,578.466,708.1,578.59,711.359,578.59Zm-118.74-67.43,2.351.71c2.079-1.495,4.023-3.146,6.27-4.453,5.5-3.184,10.668-7.474,16.838-8.966,6.989-1.689,15.024-1.5,22.428-.84,6.241.556,7.243-1.208,7.154-5.438q-.607-27.876-.888-55.761c-.111-9.522.1-19.045-.05-28.567-.226-14.366-.705-28.729-.938-43.1-.061-3.743-1.4-6.344-6.61-6.353-16.079-.032-32.159-.012-49.441-.012Q591.178,434.761,592.619,511.16Zm123.353-12.625c.981-36.867,1.915-72.877,2.913-108.883.2-7.277-1.084-8.459-10.146-8.517-13.317-.084-26.637-.2-39.953-.2-3.682,0-7.369.377-11.574.608-.311,4.2-.834,7.932-.823,11.666q.113,44.228.422,88.454c.022,3.23-.53,6.788.938,9.595s5.01,6.837,7.852,6.95C681.945,498.874,698.354,498.535,715.972,498.535ZM185.608,617.549c-9.172-.484-22.328,5.11-27.839,11.782-5.49,6.643-12.916,11.049-21.58,14.714-13.9,5.872-27.46,12.283-40.973,18.729-2.119,1.011-4.549,3.378-4.6,5.159-.387,13.251-.211,26.513-.211,40.135h95.206Zm231.264-76.788c-13.059,0-25.438.064-37.813-.035-4.57-.035-4.592,2.019-4.6,4.9q-.145,67.629-.53,135.26c-.011,2.961,0,5.921,0,8.679h42.942ZM249.439,615.278c-13.836.539-28.161,1.35-42.5,1.538-6.835.09-8.449,2.242-8.421,7.474.1,19.766-.422,39.535-.641,59.3-.093,8.175-.018,16.351-.018,24.819h51.577Zm405.923-64.49c4.71-1.02,7.755-2.231,10.812-2.254,23.072-.162,46.145-.093,69.221-.1h7.179v-39.4h-6.907c-23.513,0-47.025.07-70.538-.049-5.264-.026-10.529-1.046-15.786-1.008a134.106,134.106,0,0,0-19.146,1.266c-5.021.768-8.893,16.985-4.878,19.946C635.611,536.787,646.129,544.174,655.362,550.788ZM327.654,744.434c-1.253,7.135,3.894,6.678,8.306,6.043,3.156-.452,6.023-2.115,9.1-3.065,3.042-.936,6.177-2.321,9.287-2.355,19.322-.214,38.651-.1,57.973-.1a9.9,9.9,0,0,1,3.3.145c13.345,5.261,26.079-1.66,40.623-.011-13.08-14.705-24.869-28.11-36.969-41.326-1.288-1.405-4.4-2.355-6.7-2.4-11.763-.226-23.541-.208-35.312-.04-12.164.174-13.249-2.656-17.829,9.809a17.908,17.908,0,0,1-3.282,5.278c-6.048,7.074-9.906,15.212-18.524,21.1-4.4,3.007-7.873,4.783-13.589,4.592-9.978-.33-19.984-.116-29.979-.061a45.889,45.889,0,0,0-5.007.559l.15,1.825Zm-163.6-290.423a33.383,33.383,0,0,0,3.428.377c24.865-.3,49.731-.571,74.592-1.08,1.521-.029,3.955-1.825,4.3-3.1,1.757-6.408,3.543-12.88,4.194-19.4.694-6.967.068-14.018.15-21.032.043-3.853-1.94-5.475-6.86-5.287-13.481.519-26.977.829-40.469,1.156-10.429.252-20.875.246-31.289.7-3.529.156-7.963.6-8,4.748C163.975,425.276,164.053,439.46,164.053,454.011Zm177.2,252.945c8.016-5.472,5.83-16.849,19.4-17.727v-148.3c-5.032.655-11.656-.046-14.294,2.251-3.482,3.03-5.275,8.407-5.307,12.79-.354,48.562-.236,97.127-.222,145.689C340.838,703.187,341.07,704.711,341.256,706.956Zm239.8-262.919h-1.074q0-40.461.032-80.924c.007-3.3-.973-6.177-5.7-5.545-4.015.539-10.74-1.738-10.5,5.041.279,8.077.576,16.154.587,24.23.057,44.6,0,89.2.086,133.8.011,3.8-1.732,8.642,6.979,8.3,9.108-.353,9.48.015,9.534-7.761C581.163,495.467,581.06,469.751,581.06,444.037Zm78.447-70.049c18.706,3.445,36.457,2.5,54.183,1.921,4.1-.133,6.689-1.735,6.771-5.307.3-12.973.533-25.945.909-38.918.1-3.334-2.14-3.691-5.5-3.673-18.216.09-36.432.035-54.644.069-1.478,0-2.953.319-5.189.574C657.205,343.908,658.35,358.9,659.506,373.988ZM250.3,396.645c.182-2.013.386-3.421.429-4.835.268-9.007.258-9.01-10.922-9.01q-63.661,0-127.322.009a40.4,40.4,0,0,0-7.952.327c-1.575.321-3.729,1.669-3.987,2.8-.78,3.419-.759,6.953-1.074,10.71ZM89.443,452.592c18.169,0,35.251.073,52.329-.122,1.5-.017,4.234-1.75,4.255-2.715.279-13.77.19-27.544.19-42.308-15.059-.487-29.858-.973-44.656-1.443-4.992-.157-6.367,2.471-6.818,5.837-1.074,8.013-2.215,16.023-3.267,24.039C90.757,441.351,90.141,446.829,89.443,452.592Zm653.574,45.115v-5.6q-.006-29.9-.022-59.805c-.018-10.774-.022-21.551-.308-32.322-.046-1.738-.934-4.34-2.466-5.018-7.057-3.129-13.975.133-14.29,6.666-1.328,27.449-2.645,54.9-3.636,82.35-.551,15.357-.258,15.366,19.007,14.555A10.685,10.685,0,0,0,743.017,497.706ZM729.686,345.5a7.245,7.245,0,0,0-.727,1.825c-.583,11.313-1.023,22.628-1.732,33.935-.261,4.119.583,7.132,6.7,7.289,5.941.154,8.872-1.99,8.983-7.2.168-7.909.1-15.823.1-23.732C743,347.825,742,346.895,729.686,345.5ZM344.624,528.762c7.4,0,14.383.264,21.3-.154,2.194-.133,6.012-2.063,6.034-3.207.179-9.493-.358-18.993-.676-28.492l-2.383-.432c-2.376,2.523-5.189,4.861-7.022,7.622-2.126,3.207-2.888,7.025-5.15,10.145C353.077,519.283,348.679,523.968,344.624,528.762Zm66.193-1.53-24.865-30.775v30.775Zm332.128,51.143c0-3.514.111-6.53-.022-9.537-.243-5.519-5.984-9.969-12.848-9.809-2.015.046-4,.823-6.005,1.266.612,1.593,1.149,3.21,1.854,4.777,1.886,4.183,3.844,8.346,5.773,12.518l-1.646.785ZM596.069,527.928l.759,1.391c6.241,0,12.544.382,18.685-.255,1.65-.171,4.309-3.705,3.894-5.232-.92-3.41-4.166-7.355-8.954-5.429C605.044,520.578,600.811,524.669,596.069,527.928Z" transform="translate(-57.499 -297.75)" fill="#fff"/>
    <path id="Tracé_6793" data-name="Tracé 6793" d="M211.954,430.56c0,7.716-.04,15.435.018,23.151.025,3.181-1.027,4.537-4.573,4.486-10.093-.149-9.919.018-10.2-10.258-.381-13.773-.982-27.541-1.673-41.3-.178-3.564.8-4.823,4.564-4.738,9.42.209,9.425.027,10.129,9.643.232,3.165.561,6.328.679,9.5s.027,6.346.027,9.518Z" transform="translate(305.627 -86.949)" fill="#fff"/>
    <path id="Tracé_6794" data-name="Tracé 6794" d="M213.1,428.637c0-7.58.045-15.163-.024-22.743-.025-2.691,1.127-3.6,3.765-3.482,11.512.537,10.536-2.746,10.819,10.349.261,12.131.074,24.276-.089,36.412-.08,5.93-.258,5.927-6.028,5.925-8.583,0-8.63,0-8.75-8.665-.082-5.93-.016-11.864-.016-17.794Z" transform="translate(350.263 -86.928)" fill="#fff"/>
    <path id="Tracé_6795" data-name="Tracé 6795" d="M191.058,428.463c-.368,7.578-.793,15.156-1.078,22.737-.111,2.916-1.221,3.965-4.29,3.954-10.091-.031-10.142.1-10-10,.169-12.129.37-24.258.688-36.383.167-6.357.292-6.353,6.471-6.351,8.106,0,8.108,0,8.311,8.247.033,1.381.047,2.76.049,4.141q.01,6.83,0,13.657Z" transform="translate(253.057 -86.887)" fill="#fff"/>
    <path id="Tracé_6796" data-name="Tracé 6796" d="M230.366,402.456c4.067,0,7.9-.129,11.7.109.766.047,1.822,1.388,2.078,2.317a18.6,18.6,0,0,1,.439,4.925c-.016,13.659-.114,27.319-.094,40.976,0,3.328-1.283,4.424-4.689,4.373-9.9-.149-9.991,0-10.071-9.966-.091-11.178-.045-22.356.031-33.531C229.78,408.785,230.13,405.914,230.366,402.456Z" transform="translate(421.085 -86.877)" fill="#fff"/>
    <path id="Tracé_6797" data-name="Tracé 6797" d="M84.5,342.78a8.315,8.315,0,0,1-.06-1.343c.022-2.388-1.321-3.047-3.462-2.929-2.014.114-4.428-.5-4.656,2.606-.4,5.48-.7,10.964-1.036,16.448-.16,2.631,1.038,3.68,3.711,3.575,2.361-.094,4.422-.027,4.553-3.25C83.735,353.222,84.123,348.565,84.5,342.78Z" transform="translate(-35.685 -218.587)" fill="#fff"/>
    <path id="Tracé_6798" data-name="Tracé 6798" d="M93.448,367.951h6.175V399.19c-6.872,1.47-7.24,1.212-7.066-4.874C92.8,385.656,93.138,377,93.448,367.951Z" transform="translate(-14.501 -159.894)" fill="#fff"/>
    <path id="Tracé_6799" data-name="Tracé 6799" d="M109.305,399.216h-6.239V367.458h6.239Z" transform="translate(60.893 -160.899)" fill="#fff"/>
    <path id="Tracé_6800" data-name="Tracé 6800" d="M73.028,368.868h6.38v35.006h-6.38Z" transform="translate(-38.436 -157.596)" fill="#fff"/>
    <path id="Tracé_6801" data-name="Tracé 6801" d="M211.051,370.671V337.485h7.529c-.528,10.592-.769,21.05-1.709,31.444C216.524,372.776,213.094,370.544,211.051,370.671Z" transform="translate(342.085 -219.562)" fill="#fff"/>
    <path id="Tracé_6802" data-name="Tracé 6802" d="M232.538,337.859h6.852c0,4.865.02,9.634-.007,14.4-.024,4.549.085,9.115-.3,13.637-.076.918-2.065,2.323-3.179,2.328s-3.2-1.428-3.223-2.274C232.449,356.749,232.538,347.536,232.538,337.859Z" transform="translate(424.572 -219.135)" fill="#fff"/>
    <path id="Tracé_6803" data-name="Tracé 6803" d="M157.284,440.1h-6.293c-.134-2.492-.354-4.9-.374-7.309-.049-6.476-.06-12.953,0-19.431.058-5.72.323-5.883,6.663-4.863Z" transform="translate(184.472 -81.202)" fill="#fff"/>
    <path id="Tracé_6804" data-name="Tracé 6804" d="M150.167,386.309h6.919c0,3.963.011,7.9,0,11.839-.016,3.867-.087,7.734-.069,11.6.009,2.305-.281,3.936-3.337,3.914-2.829-.022-3.557-1.2-3.535-3.724C150.211,402.116,150.167,394.293,150.167,386.309Z" transform="translate(183.412 -124.772)" fill="#fff"/>
    <path id="Tracé_6805" data-name="Tracé 6805" d="M101.556,355.681c.6-5.462,1.234-10.922,1.775-16.39.307-3.09,2.542-2.64,4.587-2.724,2.067-.085,3.7.421,3.486,2.865-.6,6.7-1.178,13.406-2.221,20.037-.111.724-3.176,1.308-4.876,1.321-.851.007-1.962-1.285-2.488-2.245-.405-.742-.08-1.882-.08-2.847Z" transform="translate(57.478 -222.215)" fill="#fff"/>
    <path id="Tracé_6806" data-name="Tracé 6806" d="M99.9,342.178c-.278,4.522-.646,9.042-.811,13.568-.123,3.37-2.219,3.4-4.783,3.491-2.916.107-3.644-1.437-3.52-3.787q.438-8.226,1.076-16.442c.223-2.874,2.5-2.334,4.375-2.432,2-.1,3.6.256,3.687,2.727.031.96.111,1.922.172,2.882Z" transform="translate(-16.655 -222.343)" fill="#fff"/>
    <path id="Tracé_6807" data-name="Tracé 6807" d="M241.065,320.486c0,1.374-.011,2.749,0,4.121.027,2.88-.8,4.422-4.27,4.422-3.562,0-4.2-1.7-4.177-4.52.018-2.611-.016-5.221-.007-7.832.011-2.856.405-4.894,4.295-4.9,4.01,0,4.088,2.259,4.15,5C241.088,318.014,241.065,319.25,241.065,320.486Z" transform="translate(424.684 -280.526)" fill="#fff"/>
    <path id="Tracé_6808" data-name="Tracé 6808" d="M84.5,342.78c-.374,5.785-.762,10.443-.949,15.107-.131,3.223-2.192,3.156-4.553,3.25-2.673.1-3.871-.944-3.711-3.575.334-5.484.635-10.968,1.036-16.448.227-3.1,2.642-2.493,4.656-2.606,2.141-.118,3.484.541,3.462,2.929A8.315,8.315,0,0,0,84.5,342.78Z" transform="translate(-35.685 -218.587)" fill="#fff"/>
  </g>
</svg>
