<svg xmlns="http://www.w3.org/2000/svg" width="30.938" height="31.149" viewBox="0 0 30.938 31.149">
  <g id="uf8tIe" transform="translate(-275.538 -343.182)">
    <g id="Groupe_6300" data-name="Groupe 6300" transform="translate(275.538 343.182)">
      <path id="Tracé_6733" data-name="Tracé 6733" d="M287.753,343.182A12.3,12.3,0,0,1,298.5,361.309a.292.292,0,0,0,.058.414q3.464,3.472,6.915,6.957a3.287,3.287,0,0,1,.071,4.662,3.233,3.233,0,0,1-4.613.042c-.665-.651-1.314-1.319-1.969-1.979q-2.506-2.522-5.008-5.047a.287.287,0,0,0-.413-.057,12.28,12.28,0,1,1-5.784-23.119Zm0,3.282a9.011,9.011,0,1,0,8.949,9.024A9,9,0,0,0,287.751,346.464Z" transform="translate(-275.538 -343.182)" fill="#312d2d"/>
    </g>
  </g>
</svg>
