<svg xmlns="http://www.w3.org/2000/svg" width="83.807" height="83.781" viewBox="0 0 83.807 83.781">
  <g id="Groupe_6274" data-name="Groupe 6274" transform="translate(-118.153 -243.07)">
    <g id="Groupe_6265" data-name="Groupe 6265" transform="translate(118.664 243.57)">
      <path id="Tracé_6693" data-name="Tracé 6693" d="M273.248,306.914a10.29,10.29,0,1,0-10.29,10.291,10.291,10.291,0,0,0,10.29-10.291Zm-18.143,0a7.852,7.852,0,1,1,7.853,7.854,7.852,7.852,0,0,1-7.853-7.854Zm0,0" transform="translate(-221.565 -284.311)" fill="#fff" stroke="#fff" stroke-width="1"/>
      <path id="Tracé_6694" data-name="Tracé 6694" d="M201.369,324.7l-9.933-26.042a1.22,1.22,0,0,0-1.139-.784H171.5c.115-.188.23-.369.344-.557,7.234-11.977,10.875-22.454,10.823-31.136a22.606,22.606,0,0,0-45.211-.007c-.052,8.689,3.588,19.168,10.822,31.143.115.19.23.372.345.557h-18.8a1.218,1.218,0,0,0-1.139.784L118.746,324.7a1.217,1.217,0,0,0,1.139,1.653H200.23a1.217,1.217,0,0,0,1.139-1.653Zm-61.48-58.525a20.168,20.168,0,0,1,40.336.007c.105,17.309-16.078,38.658-20.168,43.777-4.09-5.117-20.273-26.46-20.168-43.784Zm19.24,46.5a1.219,1.219,0,0,0,1.857,0,129.37,129.37,0,0,0,8.982-12.366h19.488l1.56,4.091-38.082,13.545L139.359,300.3h10.787a129.178,129.178,0,0,0,8.983,12.368Zm-6.238,7.869h.006l22.719-8.078,8.812,11.449H143.415ZM130.657,300.3h5.626l14.234,18.5-14.373,5.112H121.652Zm56.849,23.609L178.031,311.6l13.857-4.928,6.575,17.24Zm0,0" transform="translate(-118.664 -243.57)" fill="#fff" stroke="#fff" stroke-width="1"/>
    </g>
  </g>
</svg>
