<svg xmlns="http://www.w3.org/2000/svg" width="74.57" height="33.901" viewBox="0 0 74.57 33.901">
  <path id="Tracé_6710" data-name="Tracé 6710" d="M777.857,453.633h24.7a1.255,1.255,0,0,0,.991-2.028l-19.86-25.489a1.252,1.252,0,0,0-1.98,0l-3.774,4.843a9.314,9.314,0,0,0-15.713-1.4l-7.038-9.326a1.255,1.255,0,0,0-2.006,0l-23.68,31.388a1.257,1.257,0,0,0,1,2.012h47.36Zm-23.68-30.557,21.159,28.045H733.018Zm21.983,10.155-5.677,7.287-6.674-8.848a6.818,6.818,0,0,1,12.351,1.561Zm2.324,17.89-6.434-8.528L782.7,428.933l17.288,22.188Z" transform="translate(-729.24 -419.732)" fill="#312d2d"/>
</svg>
