<svg xmlns="http://www.w3.org/2000/svg" width="43.837" height="46.845" viewBox="0 0 43.837 46.845">
  <g id="Groupe_6452" data-name="Groupe 6452" transform="translate(-293.734 -813.855)">
    <path id="Tracé_6711" data-name="Tracé 6711" d="M297.432,834.117a8.217,8.217,0,0,0,5.813,14.03h0a8.221,8.221,0,0,0,7.671-5.282l7.672,0a8.227,8.227,0,0,0,7.671,5.285h0a8.221,8.221,0,1,0-3.748-15.535,10.889,10.889,0,0,0-1.734-2.055,1.108,1.108,0,0,0-1.43-.063c-.046.034-4.573,3.407-8.891.322l-2.28-3.527a8.216,8.216,0,0,0,6.364,3.023h0a8.258,8.258,0,1,0-7.342-4.53l-2.745-4.245a2.8,2.8,0,0,0-4.7,3.042l4.668,7.221a7.928,7.928,0,0,0-1.179-.1A8.171,8.171,0,0,0,297.432,834.117ZM310.3,817.842a6,6,0,1,1-1.758,4.242A5.968,5.968,0,0,1,310.3,817.842Zm11.714,17.839a6,6,0,1,1,4.248,10.253h0a6,6,0,0,1-4.247-10.253ZM301.275,823.6a1,1,0,0,1,.294-1.373,1.016,1.016,0,0,1,1.373.3l5.365,8.3h0l1.379,2.133.086.087a9.5,9.5,0,0,0,1.164.6,8.609,8.609,0,0,0,1.006.363,10.445,10.445,0,0,0,7.925-1.2,8.77,8.77,0,0,1,.819,1.1c-.078.073-.161.139-.237.216a8.175,8.175,0,0,0-2.409,5.813c0,.237.017.473.036.706h-6.642c.019-.236.034-.472.034-.713a8.235,8.235,0,0,0-4.306-7.224l-.117-.182Zm7.979,16.327a6.019,6.019,0,0,1-6.006,6.008h0a6.008,6.008,0,1,1,6.01-6.008Z" transform="translate(0.898)" fill="#312d2d"/>
    <path id="Tracé_6712" data-name="Tracé 6712" d="M294.053,846.308a1.1,1.1,0,0,0,.787.329l18.606,0a1.1,1.1,0,0,0,1.1-1.071c.01-.292.187-7.224-4.176-11.22a1.106,1.106,0,0,0-1.418-.063c-.2.149-4.881,3.621-9.316.01a1.106,1.106,0,0,0-1.425.022c-.178.156-4.377,3.887-4.481,11.2A1.1,1.1,0,0,0,294.053,846.308Zm5.014-9.695a9.748,9.748,0,0,0,10.416-.024c2.184,2.482,2.7,6.064,2.823,7.83l-16.307,0A13.692,13.692,0,0,1,299.067,836.613Z" transform="translate(0 14.063)" fill="#312d2d"/>
    <path id="Tracé_6713" data-name="Tracé 6713" d="M322.523,834.28c-.2.149-4.881,3.621-9.316.01a1.106,1.106,0,0,0-1.425.022c-.178.156-4.377,3.887-4.481,11.2a1.1,1.1,0,0,0,1.106,1.12l18.606,0a1.106,1.106,0,0,0,1.1-1.071c.01-.292.187-7.224-4.175-11.22A1.106,1.106,0,0,0,322.523,834.28Zm3.348,10.139-16.3,0a13.691,13.691,0,0,1,3.069-7.81,9.746,9.746,0,0,0,10.414-.024C325.232,839.072,325.751,842.653,325.87,844.42Z" transform="translate(9.451 14.063)" fill="#312d2d"/>
  </g>
</svg>
