<svg xmlns="http://www.w3.org/2000/svg" xmlns:xlink="http://www.w3.org/1999/xlink" width="44.6" height="44.495" viewBox="0 0 44.6 44.495">
  <defs>
    <clipPath id="clip-path">
      <rect id="Rectangle_135" data-name="Rectangle 135" width="44.6" height="44.495" fill="none"/>
    </clipPath>
  </defs>
  <g id="Groupe_6454" data-name="Groupe 6454" transform="translate(0 -0.001)">
    <g id="Groupe_6453" data-name="Groupe 6453" transform="translate(0 0.001)" clip-path="url(#clip-path)">
      <path id="Tracé_7388" data-name="Tracé 7388" d="M15.7,241.864c-.189.016-.378.024-.568.024a6.7,6.7,0,0,1-1.516-.19L2.192,253.121a1.434,1.434,0,0,0,0,2.029l2.956,2.957a1.434,1.434,0,0,0,2.028,0L20.9,244.382l-2.544-2.745Z" transform="translate(-1.57 -214.139)" fill="#312d2d"/>
      <path id="Tracé_7389" data-name="Tracé 7389" d="M220.653,9.427a1.371,1.371,0,0,0-1.939,0l-7.4,7.4a1.791,1.791,0,0,1-2.535-2.532l7.365-7.364a1.427,1.427,0,1,0-2.018-2.018l-7.362,7.363a1.791,1.791,0,0,1-2.534-2.532l7.4-7.4A1.374,1.374,0,0,0,209.685.4l-8.326,8.327a7.7,7.7,0,0,0-1.986,7.373l5.581,5.582a7.7,7.7,0,0,0,7.371-1.988l8.327-8.326a1.372,1.372,0,0,0,0-1.943" transform="translate(-176.467 0)" fill="#312d2d"/>
      <path id="Tracé_7390" data-name="Tracé 7390" d="M3.741,6.708a1.511,1.511,0,0,0-1.067-.442,1.493,1.493,0,0,0-.252.021,1.509,1.509,0,0,0-1.108.831,13.157,13.157,0,0,0,2.54,15.033l7.083,7.082A3.706,3.706,0,0,0,13.56,30.32c.1,0,.21,0,.315-.013l4.112-.351L35.919,49.3A1.511,1.511,0,0,0,37,49.784h.026a1.52,1.52,0,0,0,1.072-.442l3.071-3.072a1.511,1.511,0,0,0,0-2.136Z" transform="translate(0 -5.553)" fill="#312d2d"/>
    </g>
  </g>
</svg>
