<svg xmlns="http://www.w3.org/2000/svg" width="48.746" height="42.381" viewBox="0 0 48.746 42.381">
  <g id="Groupe_6291" data-name="Groupe 6291" transform="translate(-289.987 -216.121)">
    <path id="Tracé_6708" data-name="Tracé 6708" d="M313.777,258.316a1,1,0,0,0,1.164,0c.971-.68,23.792-16.824,23.792-30.1a11.455,11.455,0,0,0-8.826-11.574,14.88,14.88,0,0,0-15.559,5.718,14.82,14.82,0,0,0-15.678-5.787c-5.356,1.43-8.683,5.892-8.683,11.643C289.987,241.492,312.806,257.636,313.777,258.316Zm-14.584-39.784a11.8,11.8,0,0,1,3.035-.386,12.868,12.868,0,0,1,11.252,6.609,1.013,1.013,0,0,0,1.767-.016,12.761,12.761,0,0,1,14.154-6.134,9.391,9.391,0,0,1,7.305,9.61c0,11.119-18.774,25.4-22.347,28.021-3.573-2.619-22.345-16.9-22.345-28.021C292.014,223.353,294.7,219.735,299.193,218.532Z" transform="translate(0 0)" fill="#312d2d"/>
    <path id="Tracé_6709" data-name="Tracé 6709" d="M306.281,241.475h5.263v-4.706h4.519v-5.43h-4.519v-4.708h-5.263v4.708h-4.518v5.43h4.518Zm-3.166-6.061v-2.726h4.519v-4.7h2.559v4.7h4.518v2.726h-4.518v4.709h-2.559v-4.709Z" transform="translate(5.446 4.861)" fill="#312d2d"/>
  </g>
</svg>
