<svg id="Groupe_6297" data-name="Groupe 6297" xmlns="http://www.w3.org/2000/svg" width="44.305" height="44.013" viewBox="0 0 44.305 44.013">
  <path id="Tracé_6722" data-name="Tracé 6722" d="M420.356,596.588c-3.648-3.645-7.134-7.128-10.567-10.559L399.179,596.64c1.5,1.475,3.094,3.022,4.671,4.584,1.436,1.422,2.869,2.849,4.273,4.3a1.483,1.483,0,0,1,.376.93c.027,3.226-.024,6.453.031,9.678.037,2.275-1.064,2.414-2.566,2.117-8.821-1.746-14.748-6.88-17.554-15.44a20.331,20.331,0,0,1-.2-12.1,21.734,21.734,0,0,1,14.724-15.378,21.481,21.481,0,0,1,7.917-.95,20.848,20.848,0,0,1,10.685,3.452,21.57,21.57,0,0,1,9.691,14.25A21.039,21.039,0,0,1,429.461,606,22.06,22.06,0,0,1,414.3,618.018c-.542.132-1.1.187-1.658.278-1.225.2-1.678-.487-1.709-1.66-.033-1.263-.007-2.527-.007-3.79,0-2.12.013-4.242-.011-6.362a1.418,1.418,0,0,1,.46-1.122c2.789-2.762,5.558-5.545,8.339-8.316A4.956,4.956,0,0,1,420.356,596.588Zm-26.2.119,15.46-15.474,15.38,15.381c-.14.163-.3.377-.491.564q-4.923,4.912-9.84,9.829a1.386,1.386,0,0,0-.34.88c-.03,1.963-.017,3.927-.013,5.89,0,.193.021.384.034.584a18.388,18.388,0,0,0,14.02-19.777,18.67,18.67,0,1,0-23.211,19.767v-.742c0-1.737-.017-3.475.011-5.212a1.559,1.559,0,0,0-.5-1.243c-2.962-2.932-5.9-5.887-8.852-8.833C395.238,597.751,394.655,597.2,394.153,596.707Z" transform="translate(-387.389 -574.356)" fill="#312d2d"/>
</svg>
