<svg xmlns="http://www.w3.org/2000/svg" width='20' height='20'>
 <symbol id="plus" viewBox="0 0 20 20">
   <g id="Groupe_38" data-name="Groupe 38" transform="translate(-350.5 -686.5)">
      <line id="Ligne_3" data-name="Ligne 3" y1="16" transform="translate(360.5 688.5)" fill="currentColor" stroke-linecap="round" stroke-width="4"/>
      <line id="Ligne_4" data-name="Ligne 4" y1="16" transform="translate(368.5 696.5) rotate(90)" fill="currentColor" stroke-linecap="round" stroke-width="4"/>
   </g>
 </symbol>
 <symbol id="moins" viewBox="0 0 20 20">
   <g id="Groupe_38" data-name="Groupe 38" transform="translate(-350.5 -686.5)">
      <line id="Ligne_4" data-name="Ligne 4" y1="16" transform="translate(368.5 696.5) rotate(90)" fill="currentColor" stroke-linecap="round" stroke-width="4"/>
   </g>
 </symbol>
 <symbol id="engrenage" viewBox="0 0 59.628 61.224">
   <path id="cogs" d="M19.914,64.015V59.7a23.938,23.938,0,0,1-4.994-2.883l-3.773,2.173a3.307,3.307,0,0,1-4.075-.629A28.655,28.655,0,0,1,.129,46.321,3.279,3.279,0,0,1,1.61,42.495l3.746-2.173a23.731,23.731,0,0,1,0-5.752L1.61,32.411A3.272,3.272,0,0,1,.129,28.585,28.7,28.7,0,0,1,7.071,16.548a3.31,3.31,0,0,1,4.075-.629l3.759,2.173A24.559,24.559,0,0,1,19.9,15.209V10.891a3.266,3.266,0,0,1,2.579-3.2,29.173,29.173,0,0,1,13.954,0,3.289,3.289,0,0,1,2.593,3.2v4.318a24.5,24.5,0,0,1,4.994,2.869l3.759-2.159a3.327,3.327,0,0,1,4.089.629A31.172,31.172,0,0,1,59.017,28.64a3.253,3.253,0,0,1-1.4,3.785l-3.43,2.159a23.732,23.732,0,0,1,0,5.752l3.855,2.391a3.279,3.279,0,0,1,1.482,3.484C58.578,50.488,55,55.038,51.855,58.4a3.3,3.3,0,0,1-4.061.6l-3.773-2.173a24.559,24.559,0,0,1-4.994,2.883v4.318a3.277,3.277,0,0,1-2.579,3.2,29.324,29.324,0,0,1-13.981,0A3.308,3.308,0,0,1,19.914,64.015Zm4.391-.847a26.3,26.3,0,0,0,10.332,0V56.65l1.468-.519a19.843,19.843,0,0,0,6.3-3.621l1.18-1.011,5.68,3.266c2.305-2.61,4.665-5.643,5.776-8.909l-5.68-3.266.288-1.517a20.147,20.147,0,0,0,0-7.255L49.358,32.3l5.68-3.266c-1.111-3.266-3.471-6.313-5.776-8.909l-5.68,3.266L42.4,22.382a19.444,19.444,0,0,0-6.3-3.621l-1.468-.519v-6.5a26.3,26.3,0,0,0-10.332,0v6.518l-1.468.519a19.843,19.843,0,0,0-6.3,3.621l-1.18,1.011-5.68-3.266A26.234,26.234,0,0,0,4.505,29.05l5.68,3.266L9.9,33.832a20.147,20.147,0,0,0,0,7.255l.288,1.517L4.505,45.87a26.105,26.105,0,0,0,5.173,8.909l5.68-3.266,1.18,1.011a19.444,19.444,0,0,0,6.3,3.621l1.468.519ZM29.573,48.78A11.327,11.327,0,1,1,40.947,37.453,11.366,11.366,0,0,1,29.573,48.78Zm0-18.282a6.955,6.955,0,1,0,6.984,6.955A6.98,6.98,0,0,0,29.573,30.5Z" transform="translate(0.026 -6.848)" fill="#fff"/>
 </symbol>
 <symbol id="valid" viewBox="0 0 16.921 12.649">
  <path id="check" d="M53.736,283.474l3.445,3.352,7.82-7.82" transform="translate(-50.908 -276.177)" fill="currentColor" stroke-linecap="round" stroke-linejoin="round" stroke-width="4"/>
 </symbol>
 <symbol id="wrench" viewBox="0 0 61.224 61.224">
  <path d="M60.674,13.689a3.258,3.258,0,0,0-5.466-1.51L47.57,19.816l-5.291-.88-.882-5.29,7.637-7.637A3.259,3.259,0,0,0,47.509.539,17.967,17.967,0,0,0,25.769,22.6L2.651,45.712A9.086,9.086,0,1,0,15.5,58.56L38.6,35.469a18,18,0,0,0,22.078-21.78ZM53.217,28.122A14.149,14.149,0,0,1,38.656,31.5l-1.122-.375L12.8,55.856a5.386,5.386,0,0,1-7.439,0,5.273,5.273,0,0,1,0-7.439l24.754-24.75-.369-1.117A14.145,14.145,0,0,1,45.59,4.042L37.3,12.334l1.651,9.927,9.932,1.653,8.287-8.293A14.111,14.111,0,0,1,53.217,28.122ZM9.564,49.743a1.913,1.913,0,1,0,1.913,1.913A1.913,1.913,0,0,0,9.564,49.743Z" transform="translate(0.003 0.001)" fill="#fff"/>
 </symbol>
 <symbol id="badge-check" viewBox="0 0 24.768 24.768">
  <path d="M16.706,8.826a.388.388,0,0,0-.548,0l-5.2,5.2-2.35-2.347a.388.388,0,0,0-.548,0l-.547.547a.387.387,0,0,0,0,.547l3.17,3.17a.387.387,0,0,0,.547,0l6.02-6.02a.387.387,0,0,0,0-.547l-.547-.547Zm8.062,3.557a4.788,4.788,0,0,0-2.4-4.136A4.765,4.765,0,0,0,16.52,2.4a4.764,4.764,0,0,0-8.272,0A4.765,4.765,0,0,0,2.4,8.248a4.764,4.764,0,0,0,0,8.272,4.765,4.765,0,0,0,5.848,5.848,4.764,4.764,0,0,0,8.272,0,4.765,4.765,0,0,0,5.848-5.848A4.788,4.788,0,0,0,24.768,12.384Zm-4.407,3.3c.256.571,1.427,2.617-.314,4.359-1.4,1.4-2.782,1.03-4.359.314-.223.585-.837,2.859-3.3,2.859-2.52,0-3.13-2.395-3.3-2.859-1.577.716-2.965,1.074-4.359-.314-1.78-1.775-.527-3.894-.314-4.359-.585-.223-2.859-.837-2.859-3.3,0-2.52,2.395-3.13,2.859-3.3-.256-.571-1.427-2.617.314-4.359C6.5,2.936,8.63,4.2,9.08,4.407c.223-.585.837-2.859,3.3-2.859,2.52,0,3.13,2.395,3.3,2.859.571-.256,2.617-1.427,4.359.314,1.78,1.775.527,3.894.314,4.359.585.223,2.859.837,2.859,3.3C23.22,14.9,20.825,15.514,20.361,15.688Z" transform="translate(0 0)" fill="#3c3c3b"/>
 </symbol>
 <symbol id="rocket" viewBox="0 0 62.689 62.689">
  <path d="M61.841,2.368A2.145,2.145,0,0,0,60.33.857,44.97,44.97,0,0,0,50.1,0c-12.7,0-20.35,6.746-26.07,15.672H11.61a6.44,6.44,0,0,0-5.25,3.243L.31,31.014A3.444,3.444,0,0,0,0,32.324a2.939,2.939,0,0,0,2.939,2.939H14.281l-1.3,2.623a4.061,4.061,0,0,0,.754,4.484l6.582,6.577A4.071,4.071,0,0,0,24.8,49.7l2.617-1.3V59.751a2.957,2.957,0,0,0,2.939,2.939,3.432,3.432,0,0,0,1.3-.31l12.088-6.047a6.421,6.421,0,0,0,3.245-5.248V38.655c8.912-5.726,15.693-13.4,15.693-26.043A44.289,44.289,0,0,0,61.841,2.368ZM4.523,31.345,9.861,20.667A2.16,2.16,0,0,1,11.61,19.59H22.041c-1.707,3.436-3.884,7.836-5.824,11.754ZM43.08,51.08a2.15,2.15,0,0,1-1.087,1.747L31.34,58.159V46.464c3.919-1.938,8.3-4.113,11.74-5.822ZM44.87,35.374c-4.837,2.422-16.638,8.257-21.785,10.8L16.5,39.621C19.052,34.45,24.888,22.651,27.3,17.8,33.448,8.2,40.485,3.918,50.1,3.918a44.53,44.53,0,0,1,8.158.526,43.554,43.554,0,0,1,.513,8.165c0,9.56-4.286,16.587-13.9,22.764Zm.186-24.6a6.856,6.856,0,1,0,6.856,6.856,6.856,6.856,0,0,0-6.856-6.856Zm0,9.794a2.938,2.938,0,1,1,2.938-2.938,2.938,2.938,0,0,1-2.938,2.938Z" fill="#fff"/>
 </symbol> 
 <symbol id="pneumatique" viewBox="0 0 52.37 52.37">
  <path d="M26.185,0A26.185,26.185,0,1,0,52.37,26.185,26.186,26.186,0,0,0,26.185,0Zm0,49.1A22.912,22.912,0,1,1,49.1,26.185,22.939,22.939,0,0,1,26.185,49.1Zm0-39.278A16.366,16.366,0,1,0,42.551,26.185,16.365,16.365,0,0,0,26.185,9.819Zm0,3.273a12.928,12.928,0,0,1,6.274,1.673l-3.843,5.289a6.452,6.452,0,0,0-4.863,0l-3.843-5.289a12.928,12.928,0,0,1,6.274-1.673ZM13.093,26.185a13.021,13.021,0,0,1,4.157-9.516l3.868,5.325a6.549,6.549,0,0,0-1.538,4.191c0,.141.033.273.042.412l-6.28,2.041A13.019,13.019,0,0,1,13.093,26.185ZM24.549,39.112a13.055,13.055,0,0,1-10.172-7.37l6.243-2.028a6.59,6.59,0,0,0,3.93,2.848v6.55ZM22.912,26.183a3.273,3.273,0,1,1,3.273,3.273A3.274,3.274,0,0,1,22.912,26.183Zm4.91,12.929v-6.55a6.586,6.586,0,0,0,3.93-2.848l6.243,2.028a13.055,13.055,0,0,1-10.172,7.37ZM32.749,26.6c.009-.139.042-.271.042-.412a6.549,6.549,0,0,0-1.538-4.191l3.868-5.325A12.838,12.838,0,0,1,39.03,28.637Z" fill="#fff"/>
  </symbol>
  <symbol id="mecanique" viewBox="0 0 51.441 51.441">
    <path d="M50.978,11.5a2.737,2.737,0,0,0-4.592-1.269L39.969,16.65l-4.446-.739-.741-4.445L41.2,5.048a2.738,2.738,0,0,0-1.281-4.6A15.1,15.1,0,0,0,21.651,18.988L2.227,38.407a7.634,7.634,0,1,0,10.8,10.8l19.4-19.4a15.12,15.12,0,0,0,18.55-18.3ZM44.713,23.628a11.888,11.888,0,0,1-12.234,2.836l-.942-.315L10.751,46.93a4.525,4.525,0,0,1-6.25,0,4.43,4.43,0,0,1,0-6.25l20.8-20.8-.31-.938A11.885,11.885,0,0,1,38.3,3.4l-6.964,6.968L32.729,18.7l8.345,1.388,6.963-6.968A11.856,11.856,0,0,1,44.713,23.628ZM8.035,41.794A1.608,1.608,0,1,0,9.643,43.4,1.607,1.607,0,0,0,8.035,41.794Z" transform="translate(0.003 0.001)" fill="#fff"/>
  </symbol>
  <symbol id="engineWarning" viewBox="0 0 73.487 51.441">
    <path d="M36.743,32a25.72,25.72,0,1,0,25.72,25.72A25.722,25.722,0,0,0,36.743,32Zm0,47.766A22.046,22.046,0,1,1,58.789,57.72,22.071,22.071,0,0,1,36.743,79.766Zm2.14-36.746H34.6a1.534,1.534,0,0,0-1.526,1.687L34.3,61.849a1.534,1.534,0,0,0,1.526,1.381h1.826a1.533,1.533,0,0,0,1.526-1.381L40.41,44.707A1.534,1.534,0,0,0,38.884,43.021Zm-2.14,22.967A2.756,2.756,0,1,0,39.5,68.743,2.755,2.755,0,0,0,36.743,65.988Zm-26.33-29.72L8.989,35.107a.934.934,0,0,0-1.322.144,36.756,36.756,0,0,0,0,44.935.933.933,0,0,0,1.322.144l1.424-1.161a.906.906,0,0,0,.137-1.264,33.076,33.076,0,0,1,0-40.372.906.906,0,0,0-.137-1.264Zm55.405-1.017a.933.933,0,0,0-1.322-.144l-1.424,1.161a.907.907,0,0,0-.137,1.264,33.078,33.078,0,0,1,0,40.373.907.907,0,0,0,.137,1.264L64.5,80.33a.934.934,0,0,0,1.322-.144,36.758,36.758,0,0,0,0-44.936Z" transform="translate(0 -32)" fill="#fff"/>
  </symbol>
  <symbol id="car" viewBox="0 0 84.864 63.647">
    <path d="M20.023,94.5c-4.3,0-7.426,2.785-7.426,6.622s3.123,6.622,7.426,6.622l1.681.017c6.5,0,7.469-3.332,7.469-5.317C29.171,98.35,24.017,94.5,20.023,94.5Zm1.681,9.282c-.582,0-1.164-.017-1.681-.017-2.069,0-3.448-1.057-3.448-2.644s1.379-2.644,3.448-2.644,5.171,2.38,5.171,3.966C25.194,103.63,23.447,103.779,21.7,103.779ZM64.838,94.5c-3.995,0-9.148,3.852-9.148,7.944,0,1.986.97,5.317,7.469,5.317l1.681-.017c4.3,0,7.426-2.785,7.426-6.622S69.141,94.5,64.838,94.5Zm0,9.265c-.517,0-1.1.017-1.681.017-1.745,0-3.491-.149-3.491-1.338,0-1.586,3.1-3.966,5.171-3.966s3.448,1.057,3.448,2.644S66.906,103.763,64.838,103.763ZM83.866,80.4a6.587,6.587,0,0,0-5.64-3.144H69.994l-1.338-4.1A13.26,13.26,0,0,0,56.05,64H28.811A13.259,13.259,0,0,0,16.2,73.153l-1.338,4.1H6.635A6.629,6.629,0,0,0,.705,86.85l.958,1.924a7.728,7.728,0,0,0,2.818,3.075,13,13,0,0,0-1.828,6.625v21.217a7.964,7.964,0,0,0,7.956,7.956H13.26a7.964,7.964,0,0,0,7.956-7.956v-2.652h42.43v2.652a7.964,7.964,0,0,0,7.956,7.956h2.652a7.964,7.964,0,0,0,7.956-7.956V98.474a13.009,13.009,0,0,0-1.828-6.627A7.715,7.715,0,0,0,83.2,88.769l.958-1.916A6.591,6.591,0,0,0,83.866,80.4ZM21.248,74.8A7.939,7.939,0,0,1,28.813,69.3H56.05A7.939,7.939,0,0,1,63.615,74.8l3.393,10.417H17.855L21.248,74.8ZM6.408,86.4,5.45,84.481a1.315,1.315,0,0,1,.056-1.29,1.29,1.29,0,0,1,1.129-.63h6.5L12.07,85.847a13.374,13.374,0,0,0-3.814,1.871A2.575,2.575,0,0,1,6.408,86.4Zm9.5,33.289a2.655,2.655,0,0,1-2.652,2.652H10.608a2.655,2.655,0,0,1-2.652-2.652v-2.652h7.956Zm60.992,0a2.656,2.656,0,0,1-2.652,2.652H71.6a2.655,2.655,0,0,1-2.652-2.652v-2.652H76.9Zm0-13.261v5.3H7.956V98.474a7.964,7.964,0,0,1,7.956-7.956H68.948A7.964,7.964,0,0,1,76.9,98.474v7.956ZM79.41,84.483,78.452,86.4A2.573,2.573,0,0,1,76.6,87.719a13.352,13.352,0,0,0-3.814-1.871l-1.069-3.285h6.5a1.29,1.29,0,0,1,1.129.63A1.308,1.308,0,0,1,79.41,84.483Z" transform="translate(0.001 -64)" fill="#fff"/>
  </symbol>
  <symbol id="cog" viewBox="0 0 71.717 74.504">
    <path d="M87.186,51.752l-4.9-2.828a29.316,29.316,0,0,0,0-7.345l4.9-2.828a3.6,3.6,0,0,0,1.659-4.131A37.188,37.188,0,0,0,80.2,19.66a3.606,3.606,0,0,0-4.422-.643L70.89,21.841a29.159,29.159,0,0,0-6.36-3.677v-5.65A3.607,3.607,0,0,0,61.754,9,37.514,37.514,0,0,0,44.515,9a3.607,3.607,0,0,0-2.776,3.51v5.65a29.156,29.156,0,0,0-6.36,3.677l-4.891-2.824a3.606,3.606,0,0,0-4.422.643,37.19,37.19,0,0,0-8.642,14.96,3.6,3.6,0,0,0,1.659,4.131l4.9,2.828a29.316,29.316,0,0,0,0,7.345l-4.9,2.828a3.6,3.6,0,0,0-1.659,4.131,37.19,37.19,0,0,0,8.642,14.96,3.606,3.606,0,0,0,4.422.643l4.891-2.824a29.153,29.153,0,0,0,6.36,3.677v5.65a3.607,3.607,0,0,0,2.776,3.51,37.514,37.514,0,0,0,17.239,0,3.607,3.607,0,0,0,2.776-3.51V72.34a29.161,29.161,0,0,0,6.36-3.677l4.891,2.824a3.606,3.606,0,0,0,4.422-.643,37.19,37.19,0,0,0,8.642-14.96,3.6,3.6,0,0,0-1.659-4.131Zm-9.836,15.09-6.956-4.017c-4.054,3.465-5.491,4.337-10.671,6.167v8.033a32.617,32.617,0,0,1-13.179,0V68.993c-5.05-1.784-6.512-2.613-10.671-6.167l-6.956,4.017a32.446,32.446,0,0,1-6.6-11.41l6.959-4.017c-.982-5.32-.982-7.006,0-12.329L22.32,35.071a32.468,32.468,0,0,1,6.6-11.411l6.956,4.02c4.112-3.52,5.567-4.366,10.671-6.169V13.477a32.564,32.564,0,0,1,13.179,0V21.51c5.1,1.8,6.559,2.649,10.671,6.169l6.956-4.02a32.465,32.465,0,0,1,6.6,11.411L76.99,39.087c.982,5.321.982,7.006,0,12.329l6.959,4.017A32.445,32.445,0,0,1,77.351,66.842ZM53.134,30.832a14.42,14.42,0,1,0,14.42,14.42A14.436,14.436,0,0,0,53.134,30.832Zm0,24.033a9.613,9.613,0,1,1,9.613-9.613A9.624,9.624,0,0,1,53.134,54.865Z" transform="translate(-17.276 -8)" fill="#fff"/>
  </symbol>
  <symbol id="briefcase-medical" viewBox="0 0 76.907 72.1">
    <path d="M51.672,70.454H43.26V62.042a1.205,1.205,0,0,0-1.2-1.2h-7.21a1.205,1.205,0,0,0-1.2,1.2v8.412H25.235a1.205,1.205,0,0,0-1.2,1.2v7.21a1.205,1.205,0,0,0,1.2,1.2h8.412v8.412a1.205,1.205,0,0,0,1.2,1.2h7.21a1.205,1.205,0,0,0,1.2-1.2V80.067h8.412a1.205,1.205,0,0,0,1.2-1.2v-7.21A1.205,1.205,0,0,0,51.672,70.454ZM69.7,46.42H52.874V35.605A3.6,3.6,0,0,0,49.269,32H27.638a3.6,3.6,0,0,0-3.605,3.605V46.42H7.21A7.212,7.212,0,0,0,0,53.63V96.89a7.212,7.212,0,0,0,7.21,7.21H69.7a7.212,7.212,0,0,0,7.21-7.21V53.63A7.212,7.212,0,0,0,69.7,46.42ZM28.84,36.807H48.067V46.42H28.84ZM72.1,96.89a2.41,2.41,0,0,1-2.4,2.4H7.21a2.41,2.41,0,0,1-2.4-2.4V53.63a2.41,2.41,0,0,1,2.4-2.4H69.7a2.41,2.41,0,0,1,2.4,2.4Z" transform="translate(0 -32)" fill="#fff"/>
  </symbol>
  <symbol id="arrow" viewBox="0 0 20.449 20.449">
  <path id="Tracé_68" data-name="Tracé 68" d="M0,0V11.384H11.384" transform="translate(10.171 18.22) rotate(-135)" fill="none" stroke="#a4a4a4" stroke-linecap="round" stroke-linejoin="round" stroke-width="3"/>
  </symbol>
  <symbol id="cross" viewBox="0 0 18.825 18.911">
  <line id="Ligne_13" data-name="Ligne 13" x2="14.579" y2="14.579" transform="translate(2.124 2.211)" fill="none" stroke="#3c3c3b" stroke-linecap="round" stroke-width="3"/>
  <line id="Ligne_14" data-name="Ligne 14" x1="14.579" y2="14.49" transform="translate(2.121 2.121)" fill="none" stroke="#3c3c3b" stroke-linecap="round" stroke-width="3"/>
  </symbol>
  <symbol id="arrow-up-from-arc" viewBox="0 0 28.336 28.336">
  <path d="M25.679,14.168a1.328,1.328,0,0,1,2.656,0A14.168,14.168,0,0,1,0,14.168a1.328,1.328,0,0,1,2.656,0,11.511,11.511,0,0,0,23.023,0ZM13.194.424A1.226,1.226,0,0,1,14.118,0a1.363,1.363,0,0,1,1.024.424l5.756,6.2a1.328,1.328,0,0,1-1.948,1.8L15.5,4.711V18.153a1.337,1.337,0,0,1-1.378,1.328,1.358,1.358,0,0,1-1.328-1.328V4.711l-3.4,3.718A1.329,1.329,0,0,1,7.51,8.5a1.286,1.286,0,0,1-.072-1.876Z" transform="translate(28.336) rotate(90)" fill="#fff"/>
  </symbol>
  <symbol id="doubleArrow" viewBox="0 0 448 512">
    <path fill="#fff" d="M224.3 273l-136 136c-9.4 9.4-24.6 9.4-33.9 0l-22.6-22.6c-9.4-9.4-9.4-24.6 0-33.9l96.4-96.4-96.4-96.4c-9.4-9.4-9.4-24.6 0-33.9L54.3 103c9.4-9.4 24.6-9.4 33.9 0l136 136c9.5 9.4 9.5 24.6.1 34zm192-34l-136-136c-9.4-9.4-24.6-9.4-33.9 0l-22.6 22.6c-9.4 9.4-9.4 24.6 0 33.9l96.4 96.4-96.4 96.4c-9.4 9.4-9.4 24.6 0 33.9l22.6 22.6c9.4 9.4 24.6 9.4 33.9 0l136-136c9.4-9.2 9.4-24.4 0-33.8z"/>
  </symbol>
</svg>